<svg xmlns="http://www.w3.org/2000/svg" viewBox="0 0 302.58 66.28"><defs><style>.cls-1,.cls-3{fill:#181716;}.cls-2{fill:#39368d;}.cls-3{stroke:#181716;stroke-miterlimit:10;stroke-width:0.06px;}</style></defs><title>logo</title><g id="Ebene_2" data-name="Ebene 2"><g id="Ebene_1-2" data-name="Ebene 1"><path class="cls-1" d="M.95,64.56V54.9h.87v9.66Z"/><path class="cls-1" d="M8.63,64.56V60.09c0-1.51-.33-2-1.46-2a5.84,5.84,0,0,0-2.35.68v5.82H4V57.5h.85v.57a5.26,5.26,0,0,1,2.43-.75c1.82,0,2.24,1,2.24,2.77v4.47Z"/><path class="cls-1" d="M13.65,64.73c-1.2,0-1.6-.46-1.6-1.75V58.22l-1.53-.07V57.5h1.53V55.6h.85v1.9h2v.72h-2v4.72c0,.9.12,1.11.84,1.11A11.37,11.37,0,0,0,14.93,64v.6A6.51,6.51,0,0,1,13.65,64.73Z"/><path class="cls-1" d="M16.65,61.32v.16c0,1.61.44,2.51,2.37,2.51a17.27,17.27,0,0,0,2.42-.19v.68a11.29,11.29,0,0,1-2.44.26c-2.4,0-3.19-1.08-3.19-3.43V60.8c0-2.21.9-3.48,2.93-3.48s2.94,1.25,2.94,3.58v.43Zm4.13-.83c0-1.26-.35-2.43-2.05-2.43s-2.07,1.21-2.07,2.43v.12h4.13Z"/><path class="cls-1" d="M24.23,58.74v5.82H23.4V57.5h.83v.57a4.53,4.53,0,0,1,2.65-.75v.77A5.55,5.55,0,0,0,24.23,58.74Z"/><path class="cls-1" d="M32.75,64.56V60.09c0-1.51-.33-2-1.46-2a5.84,5.84,0,0,0-2.35.68v5.82h-.85V57.5h.85v.57a5.26,5.26,0,0,1,2.43-.75c1.82,0,2.24,1,2.24,2.77v4.47Z"/><path class="cls-1" d="M36.15,61.32v.16c0,1.61.44,2.51,2.37,2.51a17.27,17.27,0,0,0,2.42-.19v.68a11.29,11.29,0,0,1-2.44.26c-2.4,0-3.19-1.08-3.19-3.43V60.8c0-2.21.9-3.48,2.93-3.48s2.94,1.25,2.94,3.58v.43Zm4.13-.83c0-1.26-.35-2.43-2.05-2.43s-2.07,1.21-2.07,2.43v.12h4.13Z"/><path class="cls-1" d="M45,64.73c-1.2,0-1.6-.46-1.6-1.75V58.22l-1.53-.07V57.5h1.53V55.6h.85v1.9h2v.72h-2v4.72c0,.9.12,1.11.84,1.11A11.37,11.37,0,0,0,46.31,64v.6A6.51,6.51,0,0,1,45,64.73Z"/><path class="cls-1" d="M62.05,55.68v8.88h-.87V55.68H58.06V54.9h7.12v.78Z"/><path class="cls-1" d="M70.42,64.56H69.25L66,54.9h.92l2.59,7.64c.16.44.26.94.38,1.35h0a14,14,0,0,1,.38-1.35l2.57-7.64h.9Z"/><path class="cls-1" d="M89.5,55.68v8.88h-.87V55.68H85.5V54.9h7.13v.78Z"/><path class="cls-1" d="M93.48,61.32v.16c0,1.61.44,2.51,2.37,2.51a17.25,17.25,0,0,0,2.42-.19v.68a11.28,11.28,0,0,1-2.44.26c-2.41,0-3.19-1.08-3.19-3.43V60.8c0-2.21.9-3.48,2.93-3.48s2.94,1.25,2.94,3.58v.43Zm4.13-.83c0-1.26-.35-2.43-2.05-2.43s-2.07,1.21-2.07,2.43v.12h4.13Z"/><path class="cls-1" d="M100.27,64.56v-10h.85v10Z"/><path class="cls-1" d="M103.76,61.32v.16c0,1.61.44,2.51,2.37,2.51a17.28,17.28,0,0,0,2.42-.19v.68a11.3,11.3,0,0,1-2.44.26c-2.41,0-3.19-1.08-3.19-3.43V60.8c0-2.21.9-3.48,2.92-3.48s2.94,1.25,2.94,3.58v.43Zm4.13-.83c0-1.26-.35-2.43-2.05-2.43s-2.07,1.21-2.07,2.43v.12h4.13Z"/><path class="cls-1" d="M111.71,58.22v6.34h-.86V58.22l-1.39-.07V57.5h1.39v-1c0-1.23.21-2.16,1.78-2.16a5.73,5.73,0,0,1,1.27.14v.6c-.3,0-.78-.06-1.17-.06-.91,0-1,.39-1,1.48v1h2.16v.72Z"/><path class="cls-1" d="M117.37,64.73c-2,0-2.94-1.14-2.94-3.33v-.75c0-2.17.94-3.33,2.94-3.33s2.94,1.16,2.94,3.33v.75C120.31,63.59,119.37,64.73,117.37,64.73Zm2.09-4.08c0-1.81-.62-2.57-2.09-2.57s-2.09.77-2.09,2.57v.75c0,1.81.62,2.59,2.09,2.59s2.09-.78,2.09-2.59Z"/><path class="cls-1" d="M126.73,64.56V60.09c0-1.51-.33-2-1.46-2a5.85,5.85,0,0,0-2.35.68v5.82h-.84V57.5h.84v.57a5.26,5.26,0,0,1,2.43-.75c1.82,0,2.24,1,2.24,2.77v4.47Z"/><path class="cls-1" d="M129.68,56.12V54.51h.87v1.61Zm0,8.44V57.5h.86v7.06Z"/><path class="cls-1" d="M133.2,61.32v.16c0,1.61.44,2.51,2.37,2.51a17.25,17.25,0,0,0,2.42-.19v.68a11.28,11.28,0,0,1-2.44.26c-2.41,0-3.19-1.08-3.19-3.43V60.8c0-2.21.9-3.48,2.93-3.48s2.94,1.25,2.94,3.58v.43Zm4.13-.83c0-1.26-.35-2.43-2.05-2.43s-2.07,1.21-2.07,2.43v.12h4.13Z"/><path class="cls-2" d="M151.31,66.28V53.9h.84V66.28Z"/><path class="cls-1" d="M168.28,64.61c-1.09,0-1.65,0-2.6-.05V54.9c1,0,1.4,0,2.6,0,2.9,0,4.15,1.5,4.15,4.29V60.3C172.43,63.09,171.24,64.61,168.28,64.61Zm3.28-5.46c0-2.61-1.14-3.51-3.34-3.51l-1.66,0v8.13c.49,0,1.05.05,1.66.05,2.2,0,3.34-.94,3.34-3.55Z"/><path class="cls-1" d="M178.28,64.56v-.51a4.52,4.52,0,0,1-2.35.68c-1.38,0-2.11-.62-2.11-2v-.19c0-1.79,1.16-2.16,3.22-2.16h1.2v-.6c0-1.38-.3-1.7-1.87-1.7a17.15,17.15,0,0,0-2.07.14v-.62a10.56,10.56,0,0,1,2.13-.25c2.25,0,2.67.77,2.67,2.43v4.81Zm0-3.55H177c-1.7,0-2.38.23-2.38,1.5v.25c0,1,.55,1.31,1.43,1.31a4.42,4.42,0,0,0,2.15-.64Z"/><path class="cls-1" d="M183.22,64.73c-1.2,0-1.6-.46-1.6-1.75V58.22l-1.53-.07V57.5h1.53V55.6h.84v1.9h2v.72h-2v4.72c0,.9.12,1.11.85,1.11a11.36,11.36,0,0,0,1.18-.07v.6A6.51,6.51,0,0,1,183.22,64.73Z"/><path class="cls-1" d="M190,64.56v-.51a4.52,4.52,0,0,1-2.35.68c-1.38,0-2.11-.62-2.11-2v-.19c0-1.79,1.16-2.16,3.22-2.16H190v-.6c0-1.38-.3-1.7-1.87-1.7a17.15,17.15,0,0,0-2.07.14v-.62a10.56,10.56,0,0,1,2.13-.25c2.25,0,2.67.77,2.67,2.43v4.81ZM190,61h-1.2c-1.7,0-2.38.23-2.38,1.5v.25c0,1,.55,1.31,1.43,1.31a4.41,4.41,0,0,0,2.14-.64Z"/><path class="cls-1" d="M195.3,64.73c-1.94,0-2.82-1-2.82-3.32v-.78c0-2.28.91-3.32,2.82-3.32a9,9,0,0,1,1.94.22v.65c-.86-.09-1.43-.13-1.82-.13-1.34,0-2.08.51-2.08,2.57v.78c0,2.11.73,2.59,2.08,2.59a16.76,16.76,0,0,0,1.82-.14v.65A8.77,8.77,0,0,1,195.3,64.73Z"/><path class="cls-1" d="M199.12,61.32v.16c0,1.61.44,2.51,2.37,2.51a17.25,17.25,0,0,0,2.42-.19v.68a11.28,11.28,0,0,1-2.44.26c-2.41,0-3.19-1.08-3.19-3.43V60.8c0-2.21.9-3.48,2.93-3.48s2.94,1.25,2.94,3.58v.43Zm4.13-.83c0-1.26-.35-2.43-2.05-2.43s-2.07,1.21-2.07,2.43v.12h4.13Z"/><path class="cls-1" d="M210.52,64.56V60.09c0-1.51-.33-2-1.46-2a5.85,5.85,0,0,0-2.35.68v5.82h-.84V57.5h.84v.57a5.26,5.26,0,0,1,2.43-.75c1.82,0,2.24,1,2.24,2.77v4.47Z"/><path class="cls-1" d="M215.54,64.73c-1.2,0-1.6-.46-1.6-1.75V58.22l-1.53-.07V57.5h1.53V55.6h.84v1.9h2v.72h-2v4.72c0,.9.12,1.11.85,1.11a11.36,11.36,0,0,0,1.18-.07v.6A6.51,6.51,0,0,1,215.54,64.73Z"/><path class="cls-1" d="M218.54,61.32v.16c0,1.61.44,2.51,2.37,2.51a17.25,17.25,0,0,0,2.42-.19v.68a11.28,11.28,0,0,1-2.44.26c-2.41,0-3.19-1.08-3.19-3.43V60.8c0-2.21.9-3.48,2.93-3.48s2.94,1.25,2.94,3.58v.43Zm4.13-.83c0-1.26-.35-2.43-2.05-2.43s-2.07,1.21-2.07,2.43v.12h4.13Z"/><path class="cls-1" d="M226.12,58.74v5.82h-.83V57.5h.83v.57a4.53,4.53,0,0,1,2.65-.75v.77A5.55,5.55,0,0,0,226.12,58.74Z"/><path class="cls-1" d="M241.07,64.56V54.9h.87v9.66Z"/><path class="cls-1" d="M247.44,55.68v8.88h-.87V55.68h-3.12V54.9h7.13v.78Z"/><path class="cls-1" d="M250.77,61.15v-.73H254v.73Z"/><path class="cls-1" d="M258.53,64.73a15.22,15.22,0,0,1-2.68-.23v-.69a22.58,22.58,0,0,0,2.68.17c1.42,0,2.24-.48,2.24-1.79,0-.95-.44-1.4-1.72-2l-1.31-.61c-1.3-.6-2.09-1.27-2.09-2.59,0-1.55,1.07-2.24,3.07-2.24a15.24,15.24,0,0,1,2.61.23v.7a24.64,24.64,0,0,0-2.59-.17c-1.38,0-2.22.35-2.22,1.47,0,.87.48,1.35,1.61,1.86l1.31.6c1.51.69,2.21,1.37,2.21,2.74C261.65,63.86,260.59,64.73,258.53,64.73Z"/><path class="cls-1" d="M263.92,61.32v.16c0,1.61.44,2.51,2.37,2.51a17.25,17.25,0,0,0,2.42-.19v.68a11.28,11.28,0,0,1-2.44.26c-2.41,0-3.19-1.08-3.19-3.43V60.8c0-2.21.9-3.48,2.93-3.48s2.94,1.25,2.94,3.58v.43Zm4.13-.83c0-1.26-.35-2.43-2.05-2.43s-2.07,1.21-2.07,2.43v.12h4.13Z"/><path class="cls-1" d="M271.5,58.74v5.82h-.83V57.5h.83v.57a4.53,4.53,0,0,1,2.65-.75v.77A5.55,5.55,0,0,0,271.5,58.74Z"/><path class="cls-1" d="M278.2,64.56H277l-2.43-7.06h.92l1.59,4.77c.19.6.35,1.14.51,1.7h0c.17-.56.31-1.09.51-1.7l1.57-4.77h.92Z"/><path class="cls-1" d="M282,56.12V54.51h.87v1.61Zm0,8.44V57.5h.86v7.06Z"/><path class="cls-1" d="M287.49,64.73c-1.94,0-2.82-1-2.82-3.32v-.78c0-2.28.91-3.32,2.82-3.32a9,9,0,0,1,1.94.22v.65c-.86-.09-1.43-.13-1.82-.13-1.34,0-2.08.51-2.08,2.57v.78c0,2.11.73,2.59,2.08,2.59a16.76,16.76,0,0,0,1.82-.14v.65A8.77,8.77,0,0,1,287.49,64.73Z"/><path class="cls-1" d="M291.31,61.32v.16c0,1.61.44,2.51,2.37,2.51a17.25,17.25,0,0,0,2.42-.19v.68a11.28,11.28,0,0,1-2.44.26c-2.41,0-3.19-1.08-3.19-3.43V60.8c0-2.21.9-3.48,2.93-3.48s2.94,1.25,2.94,3.58v.43Zm4.13-.83c0-1.26-.35-2.43-2.05-2.43s-2.07,1.21-2.07,2.43v.12h4.13Z"/><path class="cls-1" d="M300,64.73a10.41,10.41,0,0,1-2.26-.26v-.66A19,19,0,0,0,300,64c1.33,0,1.74-.46,1.74-1.17s-.31-1-1.59-1.5l-.51-.19c-1.35-.55-2-1.11-2-2.11,0-1.17.82-1.72,2.52-1.72a8.39,8.39,0,0,1,2.07.25v.65a16.7,16.7,0,0,0-2-.16c-1.17,0-1.7.21-1.7,1s.36.95,1.46,1.39l.51.21c1.57.66,2.09,1.12,2.09,2.18S302,64.73,300,64.73Z"/><path class="cls-2" d="M66.29,14.15v.5a1.91,1.91,0,0,1,.1-.5Z"/><path class="cls-2" d="M66.34,37.9l0,.05,0,0,.06,0h.14l.21,0,.21,0a13.15,13.15,0,0,0,7.1-2.63,12.11,12.11,0,0,0,4.24-6.11,12.17,12.17,0,0,0,.28-5,11.68,11.68,0,0,0-3.43-6.43,13,13,0,0,0-7.59-3.51,5.52,5.52,0,0,1-1.25-.12,1.91,1.91,0,0,0-.1.5V37.76a.29.29,0,0,0,0,.12Z"/><path class="cls-2" d="M66.54,38h0Z"/><path class="cls-2" d="M67.05,37.95l-.21,0Z"/><path class="cls-2" d="M66.43,38l0,0Z"/><path class="cls-2" d="M66.61,38h0Z"/><path class="cls-2" d="M66.34,37.9l0,0Z"/><path class="cls-2" d="M66.84,38l-.21,0Z"/><path class="cls-2" d="M66.6,38h0Z"/><path class="cls-2" d="M66.39,38l0-.05Z"/><path class="cls-2" d="M66.49,38l-.06,0Z"/><path class="cls-2" d="M66.29,37.76a.29.29,0,0,0,0,.12A.29.29,0,0,1,66.29,37.76Z"/><path class="cls-2" d="M38.66.12a6.12,6.12,0,0,1,7.11,4.75,6.17,6.17,0,0,1-.84,4.43,6.2,6.2,0,0,1-10.65-.37A5.78,5.78,0,0,1,33.64,5,5.91,5.91,0,0,1,35.4,1.76,6.15,6.15,0,0,1,38.66.12Z"/><path class="cls-2" d="M10.67,14.33c.59-.11,1.19,0,1.78-.19a1.47,1.47,0,0,1,.11.42c0,7.68,0,15.35,0,23a.42.42,0,0,1-.17.43,13.58,13.58,0,0,1-5.5-1.36A12.1,12.1,0,0,1,.71,30a11.24,11.24,0,0,1,.79-9.54,12.77,12.77,0,0,1,9.17-6.14Z"/><path class="cls-2" d="M15.6,14.44c0-.25.22-.32.4-.29H27.59c.19,0,.45,0,.4.29q0,11.66,0,23.32a5.7,5.7,0,0,1-.59,2.46,9,9,0,0,1-4.22,3.65,17.92,17.92,0,0,1-7.62,1.58c0-10.34,0-20.67,0-31Z"/><path class="cls-2" d="M33.51,14.15c4.11,0,8.21,0,12.32,0q0,11.94,0,23.87c-4.11,0-8.21,0-12.32,0q0-11.94,0-23.87Z"/><path class="cls-2" d="M50.67,6.56c4.19,0,8.39,0,12.58,0,0,10.43,0,20.85,0,31.29a1.51,1.51,0,0,1-.15.15c-4,0-8,0-12,0-.19,0-.45-.06-.42-.29q0-15.58,0-31.16Z"/><path class="cls-3" d="M101.21,16.07a10.27,10.27,0,0,1,6.73-2.46c2.46-.09,5.11.36,7,2.07a6,6,0,0,1,1.79,4.39c-1.18,0-2.34,0-3.51,0a3.48,3.48,0,0,0-1.34-2.68,6.56,6.56,0,0,0-4.65-.85A5.94,5.94,0,0,0,103.74,18a3.33,3.33,0,0,0-.54,3.72,3.11,3.11,0,0,0,2,1.44c1.52.48,3.05,1,4.62,1.3a14.77,14.77,0,0,1,5.39,2.08,5.12,5.12,0,0,1,2,3.65A6.84,6.84,0,0,1,115.34,36c-2,1.83-4.78,2.41-7.4,2.49-2.43,0-5.08-.34-6.94-2A7,7,0,0,1,99,31c1.18,0,2.34,0,3.5,0a5,5,0,0,0,1.18,3.32,5.28,5.28,0,0,0,3.78,1.28,7.9,7.9,0,0,0,4.91-1.21,3.53,3.53,0,0,0,.28-5.33c-1.19-1-2.8-1.21-4.29-1.53a18.73,18.73,0,0,1-6.51-2.26A5.27,5.27,0,0,1,99.52,22a6.53,6.53,0,0,1,1.7-6Z"/><path class="cls-3" d="M286,15.69a12,12,0,0,1,8.19-2A9.55,9.55,0,0,1,300,16a6,6,0,0,1,1.82,4.11c-1.18,0-2.34,0-3.51,0a4.15,4.15,0,0,0-2.37-3,8.78,8.78,0,0,0-5.42-.33,7,7,0,0,0-4.47,3.69,13.13,13.13,0,0,0-1,8.16A8.78,8.78,0,0,0,287,33.17a6.87,6.87,0,0,0,3.74,2.1,14.85,14.85,0,0,0,7.86-.4q0-3.35,0-6.7h-5.42V25.28c2.93,0,5.88,0,8.81,0V37.08a28.54,28.54,0,0,1-8,1.41,14,14,0,0,1-7.13-1.41,9.74,9.74,0,0,1-4.44-5.24,15.58,15.58,0,0,1-.25-10.11,11.78,11.78,0,0,1,3.95-6Z"/><path class="cls-3" d="M142.52,14.14c1.06-.08,2.1,0,3.16,0q0,12,0,23.88c-1.06,0-2.1,0-3.16,0,0-8,0-15.9,0-23.84Z"/><path class="cls-3" d="M182.63,14.11c1.27,0,2.52,0,3.78,0,0,1.15,0,2.29,0,3.45q-1.88,0-3.75,0c-.06-1.15,0-2.31,0-3.45Z"/><path class="cls-3" d="M172,17.83c1.06-.31,2.11-.69,3.17-1,0,1.5,0,3,0,4.51,1.27,0,2.53-.07,3.81-.06,0,.79,0,1.59,0,2.38-1.27,0-2.52-.06-3.78-.06-.07,3.56,0,7.12,0,10.66a1.59,1.59,0,0,0,1.09,1.62,5.26,5.26,0,0,0,2.59,0c0,.8,0,1.61,0,2.43a12.39,12.39,0,0,1-4.63-.06,3.07,3.07,0,0,1-2.2-3.05c-.09-3.86,0-7.73-.06-11.59-.94,0-1.88.06-2.8,0V21.3c.94,0,1.87.07,2.81.06,0-1.18,0-2.35,0-3.53Z"/><path class="cls-3" d="M269.17,14.12c-1.19,0-2.38,0-3.56,0C262.22,22,258.9,30,255.54,38c1.16,0,2.32,0,3.47,0,.81-2.07,1.71-4.09,2.53-6.16,3.69-.06,7.37,0,11.06,0,.86,2.07,1.71,4.14,2.58,6.22h3.63C275.64,30,272.36,22.09,269.17,14.12Zm-6.49,14.79c1.55-3.8,3-7.62,4.56-11.39,1.46,3.78,2.86,7.58,4.29,11.39Z"/><path class="cls-3" d="M218.07,21.39a7.07,7.07,0,0,1,5.12-.06,5.16,5.16,0,0,1,2.73,2,5.91,5.91,0,0,1,.85,3.17V38h-3.19c0-3.57,0-7.15,0-10.74a4.52,4.52,0,0,0-.92-2.87,3.75,3.75,0,0,0-2.74-1.07A4.33,4.33,0,0,0,216,25.48a8.13,8.13,0,0,0-.6,3.57V38h-3.16V21.4c1,0,2,0,3.07,0,0,.82,0,1.62,0,2.44a5.79,5.79,0,0,1,2.71-2.46Z"/><path class="cls-3" d="M234.54,21.49a9.51,9.51,0,0,1,5.9-.28,5.45,5.45,0,0,1,3.16,2,4.32,4.32,0,0,1,.65,2.74c-1.1,0-2.22,0-3.32,0a2.58,2.58,0,0,0-.58-1.88,3.82,3.82,0,0,0-3-.91,2.82,2.82,0,0,0-2.46,1.32,2,2,0,0,0,.16,2.35,5.08,5.08,0,0,0,2.44,1c1.1.21,2.16.61,3.25.91a5.86,5.86,0,0,1,3.34,2,4.74,4.74,0,0,1,.57,3.16,4.48,4.48,0,0,1-1.37,2.65,7.48,7.48,0,0,1-4.18,1.76,10,10,0,0,1-5.2-.52,4.72,4.72,0,0,1-2.56-2.52,5.72,5.72,0,0,1-.39-2.29c1.1,0,2.22,0,3.34,0a3.13,3.13,0,0,0,1,2.34,4.12,4.12,0,0,0,3.41.69,3.1,3.1,0,0,0,2.41-1.64,2.15,2.15,0,0,0-.09-2.1,3.68,3.68,0,0,0-1.92-1.06c-2-.54-4.08-.67-5.87-1.73A3.84,3.84,0,0,1,231.35,27a4.78,4.78,0,0,1,.48-3.26,5.35,5.35,0,0,1,2.71-2.2Z"/><path class="cls-3" d="M151.66,21.4c1.06,0,2.1,0,3.16,0,0,2.4,0,4.79,0,7.19a28,28,0,0,0,.19,4.74,3.24,3.24,0,0,0,1.7,2.49,4.34,4.34,0,0,0,4.63-.76,5,5,0,0,0,1.25-2.77,24.45,24.45,0,0,0,.21-4.44c0-2.14,0-4.29,0-6.45q1.61-.07,3.22,0c0,5.52,0,11,0,16.56-1,0-2.07,0-3.11,0,0-.8,0-1.61,0-2.41a6.34,6.34,0,0,1-3.07,2.47,6.76,6.76,0,0,1-5.48-.27,5.36,5.36,0,0,1-2.47-3.5,11.77,11.77,0,0,1-.18-3c0-3.29,0-6.6,0-9.89Z"/><path class="cls-3" d="M182.93,21.4c1.06,0,2.13,0,3.19,0V38h-3.19c0-5.52,0-11.06,0-16.59Z"/><path class="cls-3" d="M137.62,28.42a8.25,8.25,0,0,0-2.72-5.75A8.93,8.93,0,0,0,128,21a7.35,7.35,0,0,0-5.15,2.84,10.63,10.63,0,0,0-1.59,7.48,8.14,8.14,0,0,0,3,5.64,9.3,9.3,0,0,0,6.92,1.45,7.38,7.38,0,0,0,4.84-2.77A10.39,10.39,0,0,0,137.62,28.42Zm-4,5.27A4.16,4.16,0,0,1,130.7,36a5.21,5.21,0,0,1-4.17-.7,5.27,5.27,0,0,1-1.82-3.11,13.07,13.07,0,0,1-.22-3.48A7.42,7.42,0,0,1,125.62,25a4.07,4.07,0,0,1,2.49-1.67,5.13,5.13,0,0,1,4.35.86,6,6,0,0,1,1.8,4A10.56,10.56,0,0,1,133.58,33.69Z"/><path class="cls-3" d="M205.19,23.09A8.7,8.7,0,0,0,197.81,21,7.47,7.47,0,0,0,191,28c-.33,2.77.08,5.84,2,8a9.13,9.13,0,0,0,11.75.67,8.59,8.59,0,0,0,2.73-6.28A9.61,9.61,0,0,0,205.19,23.09ZM204,31.74a5.8,5.8,0,0,1-1.68,3.41,4.52,4.52,0,0,1-3.11,1A4.45,4.45,0,0,1,196,35a6.29,6.29,0,0,1-1.61-3.84,10.75,10.75,0,0,1,.61-5.32,4.23,4.23,0,0,1,3-2.52,5.2,5.2,0,0,1,4.18.74,5.28,5.28,0,0,1,1.8,3.13A12.56,12.56,0,0,1,204,31.74Z"/><path class="cls-3" d="M83.94,28h8.31q0,1.16,0,2.32-4.15,0-8.31,0,0-1.16,0-2.32Z"/></g></g></svg>