<svg id="Layer_1" data-name="Layer 1" xmlns="http://www.w3.org/2000/svg" viewBox="0 0 635 116"><defs><style>.cls-1{fill:#00b336;}</style></defs><title>Veeam_green_logo</title><path class="cls-1" d="M619.2,4.9a14.68,14.68,0,0,0-16.8,7.6L561,93.1a6.69,6.69,0,0,1-6,3.7h0a6.69,6.69,0,0,1-6-3.7L507.5,12.6A14.62,14.62,0,0,0,490.7,5a14.91,14.91,0,0,0-11.4,14.7v84.8a7.2,7.2,0,1,0,14.4,0V18.2c0-.3-.1-.7.4-.9s.6.3.7.6l41.4,80.9a21.12,21.12,0,0,0,37.6,0L615.1,18c.1-.3.3-.7.7-.6s.4.6.4.9v86.2a7.2,7.2,0,1,0,14.4,0V19.6A15,15,0,0,0,619.2,4.9Z"/><path class="cls-1" d="M122.9,5.4a7.13,7.13,0,0,0-9.7,3L68,95.8c-.9,1.7-2.2,2.7-3.5,2.7s-2.6-1-3.5-2.7L15.7,8.4A7.07,7.07,0,0,0,6,5.4a7.27,7.27,0,0,0-3,9.8l45.1,86.1c3.4,6.5,9.5,10.4,16.3,10.4s12.9-3.9,16.3-10.4l45.4-86.1A7.53,7.53,0,0,0,122.9,5.4Z"/><path class="cls-1" d="M177.6,2.5c-30,0-54.4,24.9-54.4,55.5s24.4,55.5,54.4,55.5a54.57,54.57,0,0,0,43.7-22.4,7.32,7.32,0,0,0-1.5-10.2,7.09,7.09,0,0,0-10,1.5c-7.7,10.5-19.4,17.1-32.2,17.1-19.7,0-36.1-15.2-39.5-34.3h86.8a7.24,7.24,0,0,0,7.1-7.3C232,27.4,207.6,2.5,177.6,2.5ZM138.1,52c3.4-19.1,19.8-35.6,39.5-35.6S213.8,32.9,217.2,52Z"/><path class="cls-1" d="M295.7,2.5c-30,0-54.4,24.9-54.4,55.5s24.4,55.5,54.4,55.5a54.57,54.57,0,0,0,43.7-22.4,7.32,7.32,0,0,0-1.5-10.2,7.09,7.09,0,0,0-10,1.5c-7.7,10.5-19.4,17.1-32.2,17.1-19.7,0-36.1-15.2-39.5-34.3H343a7.24,7.24,0,0,0,7.1-7.3C350.1,27.4,325.7,2.5,295.7,2.5ZM256.2,52c3.4-19.1,19.8-35.6,39.5-35.6S331.9,32.9,335.3,52Z"/><path class="cls-1" d="M423.4,14.7c-3.3-6.3-9.2-10.1-15.8-10.1s-12.5,3.8-15.8,10.1L346.7,101a7.22,7.22,0,0,0,3,9.8,6.81,6.81,0,0,0,3.4.8,7.18,7.18,0,0,0,6.4-3.9l12.7-24.3h52.1a7.15,7.15,0,0,0,7.1-7.2c0-4-3.5-6.9-7.4-6.9l-44.5.1,25-49.9c.8-1.5,1.9-2.4,3.1-2.4s2.3.9,3.1,2.4l45.2,88.1a7.07,7.07,0,0,0,9.7,3c3.5-1.9,4.5-6.9,2.7-10.4Z"/></svg>