<svg xmlns="http://www.w3.org/2000/svg" xmlns:xlink="http://www.w3.org/1999/xlink" viewBox="0 0 1294.69 1075.92"><defs><style>.cls-1{fill:none;}.cls-2{fill:#bebebe;}.cls-3{fill:#aaa;}.cls-4{clip-path:url(#clip-path);}.cls-5{fill:#d4d4d4;}.cls-6{fill:#333;}</style><clipPath id="clip-path" transform="translate(0 0)"><rect class="cls-1" width="1294.69" height="1075.92"/></clipPath></defs><title>Mac_Produktseite</title><g id="Ebene_2" data-name="Ebene 2"><g id="provisioning_Bild" data-name="provisioning Bild"><polygon class="cls-2" points="501.25 901.52 485.19 1040.57 809.5 1040.57 793.43 901.52 501.25 901.52"/><polygon class="cls-3" points="795.52 919.59 793.43 901.52 501.25 901.52 499.17 919.59 795.52 919.59"/><g class="cls-4"><path class="cls-5" d="M384.32,1055.17v6.15s0,14.6,14.6,14.6H895.76s14.6,0,14.6-14.6v-6.15s0-14.6-14.6-14.6H398.92s-14.6,0-14.6,14.6m910.37-219V787.13H0v49.07s0,65.32,65.32,65.32h1164s65.32,0,65.32-65.32" transform="translate(0 0)"/><path class="cls-6" d="M615.83,843.18a32.53,32.53,0,1,0,32.53-32.53,32.53,32.53,0,0,0-32.53,32.53M1244,728.77H50.72V57.09H1244Zm50.72,58.36V65.32S1294.69,0,1229.36,0H65.32S0,0,0,65.32v721.8Z" transform="translate(0 0)"/></g></g></g></svg>