<svg xmlns="http://www.w3.org/2000/svg" xmlns:xlink="http://www.w3.org/1999/xlink" viewBox="0 0 163.36 85.29"><defs><style>.cls-1,.cls-4{fill:none;}.cls-2{clip-path:url(#clip-path);}.cls-3{fill:#fab428;}.cls-4{stroke:#fab428;stroke-linecap:round;stroke-linejoin:round;stroke-width:7.07px;}</style><clipPath id="clip-path"><rect class="cls-1" width="163.36" height="85.29"/></clipPath></defs><title>ueberuns</title><g id="Ebene_2" data-name="Ebene 2"><g id="provisioning_Bild" data-name="provisioning Bild"><g class="cls-2"><path class="cls-3" d="M161.9,74.75V10.54a7,7,0,0,0-7-7H90.73a7,7,0,0,0-7,7V30a17.67,17.67,0,1,1,0,27.69V74.75a7,7,0,0,0,7,7h64.21a7,7,0,0,0,7-7"/><path class="cls-4" d="M28.89,81.66a17.26,17.26,0,1,1,26.37,0M81.66,31.6l0,0a17.28,17.28,0,1,1,0,22.07m0-22.07v-21a7,7,0,0,1,7-7h64.21a7,7,0,0,1,7,7V74.8a7,7,0,0,1-7,7H88.65a7,7,0,0,1-7-7V53.63m0,0V74.7a7,7,0,0,1-7,7H55.26m-26.37,0H10.49a7,7,0,0,1-7-7V10.48a7,7,0,0,1,7-7H74.71a7,7,0,0,1,7,7V31.6"/></g></g></g></svg>