<svg xmlns="http://www.w3.org/2000/svg" xmlns:xlink="http://www.w3.org/1999/xlink" viewBox="0 0 163.45 85.39"><defs><style>.cls-1,.cls-4{fill:none;}.cls-2{clip-path:url(#clip-path);}.cls-3{fill:#fff;}.cls-4{stroke:#fff;stroke-linecap:round;stroke-linejoin:round;stroke-width:7.07px;}</style><clipPath id="clip-path"><rect class="cls-1" x="0.05" y="0.05" width="163.36" height="85.29"/></clipPath></defs><title>ueberuns_white</title><g id="Ebene_2" data-name="Ebene 2"><g id="Ebene_1-2" data-name="Ebene 1"><g class="cls-2"><path class="cls-3" d="M161.94,74.8V10.6a7,7,0,0,0-7-7H90.77a7,7,0,0,0-7,7V30.06a17.67,17.67,0,1,1,0,27.69V74.8a7,7,0,0,0,7,7H155a7,7,0,0,0,7-7"/></g><g class="cls-2"><path class="cls-4" d="M28.93,81.75H10.54a7,7,0,0,1-7-7V10.54a7,7,0,0,1,7-7H74.75a7,7,0,0,1,7,7V31.65m-.06,22V74.75a7,7,0,0,1-7,7H55.3m26.4-50.1v-21a7,7,0,0,1,7-7h64.21a7,7,0,0,1,7,7v64.2a7,7,0,0,1-7,7H88.69a7,7,0,0,1-7-7V53.68m0-22h0a17.28,17.28,0,1,1,0,22.07m-52.77,28a17.26,17.26,0,1,1,26.37,0"/></g></g></g></svg>