<svg xmlns="http://www.w3.org/2000/svg" xmlns:xlink="http://www.w3.org/1999/xlink" viewBox="0 0 169.91 169.91"><defs><style>.cls-1{fill:none;}.cls-2{clip-path:url(#clip-path);}.cls-3{fill:#fff;}</style><clipPath id="clip-path" transform="translate(0)"><rect class="cls-1" width="169.91" height="169.91"/></clipPath></defs><title>linkedin</title><g id="Ebene_2" data-name="Ebene 2"><g id="provisioning_Bild" data-name="provisioning Bild"><g class="cls-2"><path class="cls-3" d="M93,74.22V74l-.12.18Zm38.53,48.27H112.8V92.29c0-7.59-2.72-12.76-9.51-12.76-5.19,0-8.27,3.49-9.63,6.86A12.82,12.82,0,0,0,93,91v31.53H74.27s.25-51.15,0-56.45H93v8C95.54,70.2,100,64.71,110,64.71c12.35,0,21.61,8.07,21.61,25.41ZM65.13,48.57c0,5.42-4.07,9.76-10.62,9.76h-.13C48.09,58.33,44,54,44,48.57s4.2-9.75,10.62-9.75S65,43,65.13,48.57M45.13,66H63.89v56.45H45.13ZM169.91,85a85,85,0,1,0-85,85,85,85,0,0,0,85-85" transform="translate(0)"/></g></g></g></svg>