<svg xmlns="http://www.w3.org/2000/svg" xmlns:xlink="http://www.w3.org/1999/xlink" viewBox="0 0 138.16 110.91"><defs><style>.cls-1{fill:none;}.cls-2{clip-path:url(#clip-path);}.cls-3{fill:#fff;}</style><clipPath id="clip-path" transform="translate(0 -0.04)"><rect class="cls-1" width="138.15" height="110.95"/></clipPath></defs><title>partner_white</title><g id="Ebene_2" data-name="Ebene 2"><g id="Ebene_1-2" data-name="Ebene 1"><g id="Ebene_2-2" data-name="Ebene 2"><g id="provisioning_Bild" data-name="provisioning Bild"><g class="cls-2"><path class="cls-3" d="M63.73,2.75A19,19,0,1,0,59.55,37.2,26.23,26.23,0,0,1,63.73,2.75" transform="translate(0 -0.04)"/><path class="cls-3" d="M68.7,50.91A48,48,0,0,0,0,94.15H22.27A59.71,59.71,0,0,1,68.7,50.91" transform="translate(0 -0.04)"/><path class="cls-3" d="M83.29,44.16A21.77,21.77,0,1,0,61.52,22.39h0A21.77,21.77,0,0,0,83.29,44.16" transform="translate(0 -0.04)"/><path class="cls-3" d="M28.43,110.95H138.16a54.87,54.87,0,0,0-109.73,0" transform="translate(0 -0.04)"/></g></g></g></g></g></svg>