<svg xmlns="http://www.w3.org/2000/svg" xmlns:xlink="http://www.w3.org/1999/xlink" viewBox="0 0 105.67 101.99"><defs><style>.cls-1{fill:none;}.cls-2{clip-path:url(#clip-path);}.cls-3{fill:#fff;}</style><clipPath id="clip-path"><rect class="cls-1" width="105.67" height="101.99"/></clipPath></defs><title>services_white</title><g id="Ebene_2" data-name="Ebene 2"><g id="Ebene_1-2" data-name="Ebene 1"><g class="cls-2"><path class="cls-3" d="M105.67,54.87a9.76,9.76,0,0,0-18.85-3.56L73.84,50v.7a20.11,20.11,0,0,1-.54,4.63l13,1.31a9.76,9.76,0,0,0,19.36-1.78M87.74,9.8a9.77,9.77,0,1,0-16.8,6.76L61.61,32.24A20,20,0,0,1,66.22,35l9.35-15.72A9.73,9.73,0,0,0,87.74,9.8M53.82,34.4A16.31,16.31,0,1,0,70.13,50.71h0a16.3,16.3,0,0,0-16.3-16.3h0m-12.52.68-7.54-7.15a9.8,9.8,0,1,0-3.67,3.9L37.6,39a20.19,20.19,0,0,1,3.69-3.88M9.77,55.87a9.77,9.77,0,1,0,9.77,9.77v-.58L36,59.72a19.88,19.88,0,0,1-1.75-5.07L17.73,60a9.74,9.74,0,0,0-8-4.13M53.54,92.21a9.77,9.77,0,1,0,10.29-9.74l-2.94-13a19.82,19.82,0,0,1-5.23,1.19l2.94,13a9.76,9.76,0,0,0-5.06,8.56"/></g></g></g></svg>