<svg xmlns="http://www.w3.org/2000/svg" xmlns:xlink="http://www.w3.org/1999/xlink" viewBox="0 0 105.67 101.94"><defs><style>.cls-1{fill:none;}.cls-2{clip-path:url(#clip-path);}.cls-3{fill:#fab428;}</style><clipPath id="clip-path" transform="translate(0 0)"><rect class="cls-1" width="105.67" height="101.95"/></clipPath></defs><title>services</title><g id="Ebene_2" data-name="Ebene 2"><g id="provisioning_Bild" data-name="provisioning Bild"><g class="cls-2"><path class="cls-3" d="M53.54,92.18a9.77,9.77,0,1,0,10.29-9.74l-2.94-13a19.81,19.81,0,0,1-5.23,1.19l2.94,13a9.76,9.76,0,0,0-5.06,8.56M9.77,55.84a9.77,9.77,0,1,0,9.77,9.77c0-.2,0-.38,0-.58l16.43-5.34a19.88,19.88,0,0,1-1.75-5.07L17.73,60a9.74,9.74,0,0,0-8-4.13M41.3,35.05,33.76,27.9a9.8,9.8,0,1,0-3.67,3.9l7.51,7.13a20.19,20.19,0,0,1,3.69-3.88m12.53-.68a16.31,16.31,0,1,0,16.31,16.3,16.3,16.3,0,0,0-16.31-16.3M87.74,9.77a9.77,9.77,0,1,0-16.8,6.76L61.61,32.21a20,20,0,0,1,4.61,2.73l9.35-15.72A9.73,9.73,0,0,0,87.74,9.77m17.93,45.07a9.76,9.76,0,0,0-18.85-3.56L73.84,50c0,.23,0,.47,0,.7a20.11,20.11,0,0,1-.54,4.63l13,1.31a9.76,9.76,0,0,0,19.36-1.78" transform="translate(0 0)"/></g></g></g></svg>