<svg xmlns="http://www.w3.org/2000/svg" xmlns:xlink="http://www.w3.org/1999/xlink" viewBox="0 0 118.26 136.17"><defs><style>.cls-1,.cls-4{fill:none;}.cls-2{fill:#f9b328;}.cls-3{clip-path:url(#clip-path);}.cls-4{stroke:#fff;stroke-linecap:round;stroke-linejoin:round;stroke-width:2.49px;}</style><clipPath id="clip-path"><rect class="cls-1" width="118.26" height="136.17"/></clipPath></defs><title>consulting</title><g id="Ebene_2" data-name="Ebene 2"><g id="provisioning_Bild" data-name="provisioning Bild"><polygon class="cls-2" points="59.13 0 0 34.04 0 102.13 59.13 136.17 118.26 102.13 118.26 34.04 59.13 0"/><g class="cls-3"><path class="cls-4" d="M50.61,75.72H62.5m-10.2-5.54H65.66m-9.14-5.54H67.4M49.28,43.44a18.93,18.93,0,0,1,8.64,2.08l11.06-3L66.05,53.48a19,19,0,1,1-16.77-10ZM88,78.36a19,19,0,1,0-35.79,9L49.28,98.26l11.06-3A19,19,0,0,0,88,78.36Z"/></g></g></g></svg>