<svg xmlns="http://www.w3.org/2000/svg" xmlns:xlink="http://www.w3.org/1999/xlink" viewBox="0 0 203.36 229.57"><defs><style>.cls-1{fill:none;}.cls-2{fill:#f9b328;}.cls-3{clip-path:url(#clip-path);}.cls-4{fill:#fff;}</style><clipPath id="clip-path" transform="translate(0)"><rect class="cls-1" width="203.36" height="229.57"/></clipPath></defs><title>easy_provisioning</title><g id="Ebene_2" data-name="Ebene 2"><g id="provisioning_Bild" data-name="provisioning Bild"><polygon class="cls-2" points="101.68 0 0 57.39 0 172.18 101.68 229.57 203.36 172.18 203.36 57.39 101.68 0"/><g class="cls-3"><path class="cls-4" d="M101,173.79a13.2,13.2,0,1,0,13.9-13.16l-4-17.58a26.9,26.9,0,0,1-7.06,1.61l4,17.57A13.19,13.19,0,0,0,101,173.79M41.83,124.67A13.2,13.2,0,1,0,55,137.87c0-.26,0-.52,0-.78l22.21-7.22A26.86,26.86,0,0,1,74.83,123L52.6,130.26a13.17,13.17,0,0,0-10.77-5.58m42.62-28.1L74.27,86.92a13.25,13.25,0,1,0-5,5.27l10.15,9.63a27.23,27.23,0,0,1,5-5.24m16.94-.92a22,22,0,1,0,22,22,22,22,0,0,0-22-22M147.23,62.4a13.2,13.2,0,1,0-22.71,9.14L111.9,92.74a27.08,27.08,0,0,1,6.23,3.69l12.64-21.25A13.16,13.16,0,0,0,147.23,62.4m24.23,60.92a13.19,13.19,0,0,0-25.48-4.8l-17.54-1.77c0,.32,0,.63,0,.95a27.13,27.13,0,0,1-.73,6.26l17.56,1.77a13.2,13.2,0,0,0,26.17-2.41" transform="translate(0)"/></g></g></g></svg>