<svg xmlns="http://www.w3.org/2000/svg" xmlns:xlink="http://www.w3.org/1999/xlink" viewBox="0 0 189.04 189.04"><defs><style>.cls-1{fill:none;}.cls-2{clip-path:url(#clip-path);}.cls-3{fill:#ffc133;}.cls-4{fill:#fff;}.cls-5{fill:#464646;}</style><clipPath id="clip-path" transform="translate(0 0)"><rect class="cls-1" width="189.04" height="189.04"/></clipPath></defs><title>icon_software</title><g id="Ebene_2" data-name="Ebene 2"><g id="Ebene_1-2" data-name="Ebene 1"><g class="cls-2"><path class="cls-3" d="M94.52,189A94.52,94.52,0,1,0,0,94.52,94.52,94.52,0,0,0,94.52,189" transform="translate(0 0)"/><path class="cls-4" d="M101,179.26A75.93,75.93,0,1,0,25,103.33,75.93,75.93,0,0,0,101,179.26" transform="translate(0 0)"/><path class="cls-5" d="M100.53,141.12a8.67,8.67,0,1,0,9.13-8.65L107,120.93a17.65,17.65,0,0,1-4.64,1.06L105,133.53a8.67,8.67,0,0,0-4.49,7.6M61.68,108.87a8.67,8.67,0,1,0,8.67,8.67c0-.17,0-.34,0-.51l14.59-4.74a17.65,17.65,0,0,1-1.56-4.5l-14.6,4.75a8.65,8.65,0,0,0-7.07-3.67m28-18.45L83,84.07a8.7,8.7,0,1,0-3.26,3.46l6.67,6.33a17.91,17.91,0,0,1,3.28-3.45m11.12-.6a14.48,14.48,0,1,0,14.48,14.48,14.48,14.48,0,0,0-14.48-14.48M130.9,68A8.67,8.67,0,1,0,116,74L107.7,87.89a17.78,17.78,0,0,1,4.09,2.43l8.3-14A8.64,8.64,0,0,0,130.9,68m15.92,40a8.67,8.67,0,0,0-16.74-3.16l-11.52-1.16c0,.21,0,.41,0,.62a17.84,17.84,0,0,1-.48,4.11l11.53,1.16A8.67,8.67,0,0,0,146.81,108" transform="translate(0 0)"/></g></g></g></svg>