<svg xmlns="http://www.w3.org/2000/svg" xmlns:xlink="http://www.w3.org/1999/xlink" viewBox="0 0 189.04 189.04"><defs><style>.cls-1{fill:none;}.cls-2{clip-path:url(#clip-path);}.cls-3{fill:#ffc133;}.cls-4{fill:#fff;}.cls-5{fill:#464646;}</style><clipPath id="clip-path" transform="translate(0 0)"><rect class="cls-1" width="189.04" height="189.04"/></clipPath></defs><title>icon_hardware</title><g id="Ebene_2" data-name="Ebene 2"><g id="Ebene_1-2" data-name="Ebene 1"><g class="cls-2"><path class="cls-3" d="M94.52,189A94.52,94.52,0,1,0,0,94.52,94.52,94.52,0,0,0,94.52,189" transform="translate(0 0)"/><path class="cls-4" d="M101,179.26A75.93,75.93,0,1,0,25,103.33,75.93,75.93,0,0,0,101,179.26" transform="translate(0 0)"/><path class="cls-5" d="M70.9,103.3,60.42,58a1.9,1.9,0,0,0-3.7.85L66.94,103.3m3.42,32.79H63.49c-2.19,0-3.22-.87-3.62-3.22H74c-.4,2.35-1.43,3.22-3.62,3.22m73.35-3.3H129.59c.4,2.35,1.43,3.22,3.62,3.22h6.88c2.19,0,3.22-.87,3.62-3.22M61.53,106.2s-9.93,0-9.93,9.93v4.6s0,9.93,9.93,9.93h80.16s9.93,0,9.93-9.93v-4.6s0-9.93-9.93-9.93Z" transform="translate(0 0)"/></g></g></g></svg>