<svg xmlns="http://www.w3.org/2000/svg" xmlns:xlink="http://www.w3.org/1999/xlink" viewBox="0 0 189.04 189.04"><defs><style>.cls-1,.cls-5{fill:none;}.cls-2{clip-path:url(#clip-path);}.cls-3{fill:#ffc133;}.cls-4{fill:#fff;}.cls-5{stroke:#464646;stroke-linecap:round;stroke-linejoin:round;stroke-width:3.3px;}</style><clipPath id="clip-path" transform="translate(0 0)"><rect class="cls-1" width="189.04" height="189.04"/></clipPath></defs><title>icon_consulting</title><g id="Ebene_2" data-name="Ebene 2"><g id="Ebene_1-2" data-name="Ebene 1"><g class="cls-2"><path class="cls-3" d="M94.52,189A94.52,94.52,0,1,0,0,94.52,94.52,94.52,0,0,0,94.52,189" transform="translate(0 0)"/><path class="cls-4" d="M101,179.26A75.93,75.93,0,1,0,25,103.33,75.93,75.93,0,0,0,101,179.26" transform="translate(0 0)"/></g><line class="cls-5" x1="97.48" y1="95.19" x2="112.67" y2="95.19"/><line class="cls-5" x1="91.57" y1="102.92" x2="110.25" y2="102.92"/><line class="cls-5" x1="89.22" y1="110.65" x2="105.82" y2="110.65"/><g class="cls-2"><path class="cls-5" d="M141.44,114.34a26.56,26.56,0,1,0-50,12.53l-4.09,15.27L102.81,138a26.56,26.56,0,0,0,38.63-23.66Z" transform="translate(0 0)"/><path class="cls-5" d="M87.36,65.58a26.43,26.43,0,0,1,12.07,2.9l15.45-4.14-4.09,15.27a26.56,26.56,0,1,1-23.42-14Z" transform="translate(0 0)"/></g></g></g></svg>