<svg xmlns="http://www.w3.org/2000/svg" xmlns:xlink="http://www.w3.org/1999/xlink" viewBox="0 0 50.01 50.01"><defs><style>.cls-1{fill:none;}.cls-2{clip-path:url(#clip-path);}.cls-3{fill:#fab428;}</style><clipPath id="clip-path" transform="translate(0 0)"><rect class="cls-1" width="50.01" height="50.01"/></clipPath></defs><title>kundenorientiert</title><g id="Ebene_2" data-name="Ebene 2"><g id="provisioning_Bild" data-name="provisioning Bild"><g class="cls-2"><path class="cls-3" d="M45.54,25A20.25,20.25,0,1,1,25.28,4.75,20.25,20.25,0,0,1,45.54,25M50,25A25,25,0,1,0,25,50,25,25,0,0,0,50,25" transform="translate(0 0)"/><path class="cls-3" d="M35.29,25A10.29,10.29,0,1,1,25,14.72,10.29,10.29,0,0,1,35.29,25m4.78,0A15.07,15.07,0,1,0,25,40.08,15.07,15.07,0,0,0,40.07,25" transform="translate(0 0)"/><path class="cls-3" d="M25,29.92A4.92,4.92,0,1,0,20.09,25,4.91,4.91,0,0,0,25,29.92" transform="translate(0 0)"/></g></g></g></svg>