<svg xmlns="http://www.w3.org/2000/svg" xmlns:xlink="http://www.w3.org/1999/xlink" viewBox="0 0 385.59 156.24"><defs><style>.cls-1,.cls-3,.cls-4,.cls-5,.cls-6,.cls-7,.cls-8{fill:none;}.cls-2{clip-path:url(#clip-path);}.cls-3,.cls-4,.cls-5,.cls-6,.cls-7,.cls-8{stroke:#fff;}.cls-3,.cls-4,.cls-6,.cls-7{stroke-linejoin:round;}.cls-3,.cls-4{stroke-width:2.09px;}.cls-3{stroke-dasharray:6.04 3.95;}.cls-5{stroke-width:1.67px;}.cls-6,.cls-7{stroke-linecap:round;}.cls-6,.cls-7,.cls-8{stroke-width:2.93px;}.cls-7{stroke-dasharray:0 8.29;}.cls-9{fill:#fff;}.cls-10{fill:#f9b328;}</style><clipPath id="clip-path"><rect class="cls-1" width="385.58" height="156.26"/></clipPath></defs><title>Element 1</title><g id="Ebene_2" data-name="Ebene 2"><g id="Ebene_1-2" data-name="Ebene 1"><g id="Ebene_2-2" data-name="Ebene 2"><g id="Ebene_1-2-2" data-name="Ebene 1-2"><g class="cls-2"><line class="cls-3" x1="348.47" y1="77.71" x2="340.46" y2="77.71"/><line class="cls-3" x1="327.48" y1="62.76" x2="327.48" y2="54.74"/><line class="cls-3" x1="342.43" y1="41.77" x2="350.45" y2="41.77"/><line class="cls-3" x1="363.42" y1="56.72" x2="363.42" y2="64.73"/><path class="cls-4" d="M359,76.89a8,8,0,0,1-3.53.82h-3m11-11v3a8,8,0,0,1-.82,3.53m0-27a8,8,0,0,1,.82,3.53v3m-11-11h3a8,8,0,0,1,3.53.82m-27,0a8,8,0,0,1,3.53-.82h3m-11,11v-3a8,8,0,0,1,.82-3.53m0,27a8,8,0,0,1-.82-3.53v-3m11,11h-3a8,8,0,0,1-3.53-.82"/><circle class="cls-5" cx="36.42" cy="59.71" r="18.81"/><ellipse class="cls-5" cx="36.42" cy="59.71" rx="9.35" ry="18.81"/></g><line class="cls-5" x1="20.51" y1="70.02" x2="52.33" y2="70.02"/><line class="cls-5" x1="20.51" y1="49.26" x2="52.33" y2="49.26"/><line class="cls-5" x1="16.77" y1="59.64" x2="55.06" y2="59.64"/><g class="cls-2"><path class="cls-6" d="M272.58,110.09v17.56m-38.71-46.4v28.81h38.71M224.06,81.25h12.57a20.77,20.77,0,0,0,4.58-40.93"/><path class="cls-6" d="M167,21.88a39.58,39.58,0,0,1,74.2,18.39"/><path class="cls-6" d="M141.65,34.86a16.38,16.38,0,0,1,25.37-13"/><path class="cls-6" d="M109.06,127.64V110.07h38.71m0,0V81.22a23.64,23.64,0,0,1-6.09-46.34"/></g><line class="cls-7" x1="72.91" y1="59.71" x2="110.22" y2="59.71"/><path class="cls-6" d="M114.36,59.71h0m-49.74,0h0"/><line class="cls-7" x1="275.51" y1="59.71" x2="312.82" y2="59.71"/><path class="cls-6" d="M317,59.71h0m-49.74,0h0"/><polyline class="cls-6" points="153.76 81.25 163.57 81.25 163.57 127.64"/><polyline class="cls-6" points="169.31 81.25 212.36 81.25 208.31 81.25 218.13 81.25 218.13 127.64"/><g class="cls-2"><circle class="cls-8" cx="109.06" cy="134.29" r="5.18"/><circle class="cls-8" cx="163.56" cy="134.29" r="5.18"/><circle class="cls-8" cx="218.06" cy="134.29" r="5.18"/><circle class="cls-8" cx="272.56" cy="134.29" r="5.18"/><path class="cls-9" d="M363.88,65c12,0,21.71-10.07,21.71-22.49S375.87,20,363.88,20s-21.71,10.07-21.71,22.49S351.89,65,363.88,65"/><path class="cls-9" d="M114.89,154.66a3.27,3.27,0,0,0,1.3-.23,1.78,1.78,0,0,0,.8-.63,1.54,1.54,0,0,0,.26-.88,1.31,1.31,0,0,0-.3-.9,1.82,1.82,0,0,0-.72-.5,7.78,7.78,0,0,0-1.07-.31l-.75-.21a1.3,1.3,0,0,1-.46-.25.52.52,0,0,1-.18-.41.67.67,0,0,1,.31-.58,1.69,1.69,0,0,1,1-.22,3,3,0,0,1,.81.12,3.41,3.41,0,0,1,.8.34l.34-.84a2.91,2.91,0,0,0-.89-.38,4.17,4.17,0,0,0-1.05-.13,3.22,3.22,0,0,0-1.3.23,1.78,1.78,0,0,0-.79.63,1.56,1.56,0,0,0-.26.88,1.34,1.34,0,0,0,.3.91,1.78,1.78,0,0,0,.71.5,8.55,8.55,0,0,0,1.08.32l.75.21a1.29,1.29,0,0,1,.46.26.54.54,0,0,1,.18.41.63.63,0,0,1-.32.55,1.82,1.82,0,0,1-1,.21,3.2,3.2,0,0,1-1-.18,3,3,0,0,1-.88-.46l-.38.84a2.72,2.72,0,0,0,1,.51,4.47,4.47,0,0,0,1.31.19m-5.15,0a3.37,3.37,0,0,0,1.32-.25,2.67,2.67,0,0,0,1-.73l-.7-.67a2,2,0,0,1-1.56.69,2.19,2.19,0,0,1-1.08-.26,1.89,1.89,0,0,1-.74-.73,2.24,2.24,0,0,1,0-2.12,1.89,1.89,0,0,1,.74-.73,2.2,2.2,0,0,1,1.08-.26,2,2,0,0,1,1.56.68l.7-.66a2.67,2.67,0,0,0-1-.73,3.52,3.52,0,0,0-2.91.14,2.91,2.91,0,0,0-1.12,1.07,3.13,3.13,0,0,0,0,3.09,2.86,2.86,0,0,0,1.12,1.07,3.3,3.3,0,0,0,1.6.39m-7.65-2.29,1.1-2.56,1.1,2.56Zm3.14,2.21h1.14l-2.64-5.85h-1.07L100,154.58h1.12l.58-1.35h2.93Z"/><path class="cls-9" d="M293.41,153.49a1.38,1.38,0,0,1-1-.35,1.21,1.21,0,0,1-.38-.92,1.18,1.18,0,0,1,.38-.91,1.54,1.54,0,0,1,2,0,1.18,1.18,0,0,1,.38.91,1.21,1.21,0,0,1-.38.92,1.37,1.37,0,0,1-1,.35m1.39-3.38v.59a1.63,1.63,0,0,0-.67-.49,2.36,2.36,0,0,0-.88-.16,2.45,2.45,0,0,0-1.15.27,2,2,0,0,0-.81.76,2.12,2.12,0,0,0-.3,1.12,2.15,2.15,0,0,0,.3,1.13,2,2,0,0,0,.81.77,2.42,2.42,0,0,0,1.15.27,2.3,2.3,0,0,0,.84-.15,1.71,1.71,0,0,0,.65-.44V154a1.37,1.37,0,0,1-.34,1,1.5,1.5,0,0,1-1.08.33,2.92,2.92,0,0,1-.91-.15,2.24,2.24,0,0,1-.74-.39l-.47.79a2.59,2.59,0,0,0,1,.47,4.46,4.46,0,0,0,1.22.16,2.11,2.11,0,0,0,2.41-2.36v-3.79Zm-6.67,0a2.34,2.34,0,0,0-.89.16,1.63,1.63,0,0,0-.65.47v-.58h-1v4.46h1v-2.26a1.38,1.38,0,0,1,.33-1,1.21,1.21,0,0,1,.91-.35,1,1,0,0,1,.79.3,1.25,1.25,0,0,1,.28.88v2.42h1V152a2,2,0,0,0-.51-1.46,1.86,1.86,0,0,0-1.35-.49m-4.42-.69a.65.65,0,0,0,.48-.19.63.63,0,0,0,.19-.46.55.55,0,0,0-.19-.43.69.69,0,0,0-.48-.17.67.67,0,0,0-.48.18.62.62,0,0,0,0,.88h0a.67.67,0,0,0,.48.18m-.53,5.2h1V150.1h-1Zm-2.47-3.81v-.65h-1v4.46h1V152.4a1.41,1.41,0,0,1,.34-1,1.26,1.26,0,0,1,1-.35h.24v-1a1.74,1.74,0,0,0-1.59.7m-4.38,3a1.26,1.26,0,0,1-1-.38,1.56,1.56,0,0,1,0-2,1.41,1.41,0,0,1,2,0,1.55,1.55,0,0,1,0,2,1.28,1.28,0,0,1-1,.38m0,.9a2.55,2.55,0,0,0,1.23-.29,2.14,2.14,0,0,0,.85-.81,2.44,2.44,0,0,0,0-2.36,2.15,2.15,0,0,0-.85-.81,2.71,2.71,0,0,0-2.45,0,2.15,2.15,0,0,0-.85.81,2.43,2.43,0,0,0,0,2.36,2.13,2.13,0,0,0,.85.81,2.53,2.53,0,0,0,1.22.29m-3-1a.92.92,0,0,1-.58.18.6.6,0,0,1-.46-.17.7.7,0,0,1-.16-.5V151h1.2v-.84H272v-1h-1v1h-.74V151H271v2.15a1.48,1.48,0,0,0,.4,1.12,1.58,1.58,0,0,0,1.14.39,2,2,0,0,0,.56-.08,1.23,1.23,0,0,0,.45-.23ZM269,149.38a.65.65,0,0,0,.48-.19.63.63,0,0,0,.19-.46.55.55,0,0,0-.19-.43.69.69,0,0,0-.48-.17.67.67,0,0,0-.48.18.62.62,0,0,0,0,.88h0a.67.67,0,0,0,.48.18m-.53,5.2h1v-4.46h-1Zm-3.19-4.51a2.34,2.34,0,0,0-.89.16,1.64,1.64,0,0,0-.65.47v-.58h-1v4.46h1v-2.26a1.38,1.38,0,0,1,.33-1A1.2,1.2,0,0,1,265,151a1,1,0,0,1,.79.3,1.26,1.26,0,0,1,.27.88v2.42h1V152a2,2,0,0,0-.51-1.46,1.86,1.86,0,0,0-1.35-.49m-5.92,3.68a1.26,1.26,0,0,1-1-.38,1.56,1.56,0,0,1,0-2,1.26,1.26,0,0,1,1-.39,1.28,1.28,0,0,1,1,.39,1.55,1.55,0,0,1,0,2,1.28,1.28,0,0,1-1,.38m0,.9a2.55,2.55,0,0,0,1.23-.29,2.13,2.13,0,0,0,.85-.81,2.44,2.44,0,0,0,0-2.36,2.15,2.15,0,0,0-.85-.81,2.72,2.72,0,0,0-2.45,0,2.15,2.15,0,0,0-.85.81,2.44,2.44,0,0,0,0,2.36,2.13,2.13,0,0,0,.85.81,2.54,2.54,0,0,0,1.22.29m-3.49-.06v-5.85H255l-2.28,3.88-2.32-3.88h-.89v5.85h1v-3.83l1.92,3.16h.48l1.92-3.21v3.88Z"/><path class="cls-10" d="M371.54,49.52l-1.28,2.74-1-3.78-.86-.4-2.1,4.51,1,.48,1.28-2.74,1,3.79.86.4,2.1-4.51Zm-8.27.64a1.57,1.57,0,0,1-.64-.52,1.44,1.44,0,0,1-.27-.75,1.78,1.78,0,0,1,.7-1.49,1.46,1.46,0,0,1,.74-.28,1.64,1.64,0,0,1,1.44.67,1.45,1.45,0,0,1,.27.75,1.78,1.78,0,0,1-.7,1.49,1.45,1.45,0,0,1-.74.28,1.58,1.58,0,0,1-.81-.15m-.41.89a2.89,2.89,0,0,0,1.4.29,2.54,2.54,0,0,0,1.89-4.06,3.07,3.07,0,0,0-2.53-1.18,2.49,2.49,0,0,0-1.27.42,2.65,2.65,0,0,0-1.11,2.39,2.48,2.48,0,0,0,.49,1.24,2.9,2.9,0,0,0,1.12.89m-5.21-3.51A1.59,1.59,0,0,1,357,47a1.46,1.46,0,0,1-.27-.75,1.77,1.77,0,0,1,.7-1.49,1.45,1.45,0,0,1,.74-.28,1.56,1.56,0,0,1,.81.15,1.58,1.58,0,0,1,.64.52,1.45,1.45,0,0,1,.27.75,1.78,1.78,0,0,1-.7,1.49,1.45,1.45,0,0,1-.74.28,1.57,1.57,0,0,1-.81-.15m-.41.89a2.88,2.88,0,0,0,1.4.29,2.54,2.54,0,0,0,1.89-4.06,2.88,2.88,0,0,0-1.12-.89,2.91,2.91,0,0,0-1.41-.29,2.48,2.48,0,0,0-1.27.42,2.64,2.64,0,0,0-1.11,2.39,2.48,2.48,0,0,0,.49,1.24,2.91,2.91,0,0,0,1.13.89m-5-2.33a2.92,2.92,0,0,0,1.14.3,1.61,1.61,0,0,0,.88-.2,1.35,1.35,0,0,0,.54-.61,1.15,1.15,0,0,0,.1-.82,1.55,1.55,0,0,0-.38-.65,8.15,8.15,0,0,0-.73-.64,4.17,4.17,0,0,1-.63-.57.4.4,0,0,1-.08-.46.48.48,0,0,1,.38-.28,1.29,1.29,0,0,1,.71.16,2.77,2.77,0,0,1,1.08.94l.69-.64a2.75,2.75,0,0,0-.58-.63,3.83,3.83,0,0,0-.8-.5,2.88,2.88,0,0,0-1.13-.3,1.58,1.58,0,0,0-.88.21A1.39,1.39,0,0,0,352,42a1.17,1.17,0,0,0-.1.83,1.51,1.51,0,0,0,.38.65,7.89,7.89,0,0,0,.73.64,4.83,4.83,0,0,1,.46.39,1,1,0,0,1,.24.32.37.37,0,0,1,0,.33.44.44,0,0,1-.38.25,1.41,1.41,0,0,1-.72-.17,2.85,2.85,0,0,1-.74-.5,2.67,2.67,0,0,1-.53-.66l-.72.62a2.68,2.68,0,0,0,.63.75,4.07,4.07,0,0,0,1,.63"/><path class="cls-10" d="M378,47.4a1.87,1.87,0,0,1-.9-.19,1.7,1.7,0,0,1-.67-.54,1.47,1.47,0,0,1-.28-.75,1.77,1.77,0,0,1,.7-1.5,1.42,1.42,0,0,1,.76-.27,1.76,1.76,0,0,1,.85.18,1.71,1.71,0,0,1,.93,1l1-.31a2.35,2.35,0,0,0-.54-1,3.08,3.08,0,0,0-1-.7,3,3,0,0,0-1.41-.3,2.45,2.45,0,0,0-1.27.42A2.68,2.68,0,0,0,375,46a2.47,2.47,0,0,0,.49,1.24,2.9,2.9,0,0,0,1.12.89,3.63,3.63,0,0,0,1,.31,3,3,0,0,0,1,0l.85-1.83-1-.44Zm-3.71-6L373,44.14l-1-3.78-.86-.4-2.1,4.51,1,.48,1.28-2.74,1,3.79.86.4,2.1-4.51Zm-7.51,2,1,.49,2.1-4.51-1-.49Zm-1.26-.59,2.09-4.51-.86-.4-3,2-.38-3.59-.86-.4-2.1,4.51,1,.46,1.23-2.65L363,41l.47.22,2.37-1.61-1.26,2.71ZM357.41,38a1.58,1.58,0,0,1-.64-.52,1.46,1.46,0,0,1-.27-.75,1.65,1.65,0,0,1,.16-.83,1.67,1.67,0,0,1,.53-.66,1.45,1.45,0,0,1,.74-.28,1.57,1.57,0,0,1,.81.15,1.59,1.59,0,0,1,.64.52,1.45,1.45,0,0,1,.27.75,1.78,1.78,0,0,1-.7,1.49,1.45,1.45,0,0,1-.74.28,1.57,1.57,0,0,1-.81-.15m-.41.89a2.88,2.88,0,0,0,1.4.29,2.54,2.54,0,0,0,1.89-4.06,2.88,2.88,0,0,0-1.12-.89,2.91,2.91,0,0,0-1.41-.29,2.48,2.48,0,0,0-1.27.42,2.64,2.64,0,0,0-1.11,2.39,2.48,2.48,0,0,0,.49,1.25,2.91,2.91,0,0,0,1.13.89m-4.84-2.26a2.92,2.92,0,0,0,1.16.29,2.29,2.29,0,0,0,1.08-.23l-.38-.93a1.58,1.58,0,0,1-1.38,0,1.66,1.66,0,0,1-.66-.53,1.43,1.43,0,0,1-.27-.75,1.65,1.65,0,0,1,.16-.83,1.67,1.67,0,0,1,.53-.66,1.45,1.45,0,0,1,.75-.27,1.67,1.67,0,0,1,.83.17,1.59,1.59,0,0,1,.89,1.06l1-.31a2.35,2.35,0,0,0-.52-1,2.9,2.9,0,0,0-1-.7,2.86,2.86,0,0,0-1.39-.28,2.46,2.46,0,0,0-1.26.42,2.67,2.67,0,0,0-1.12,2.4,2.45,2.45,0,0,0,.49,1.24,2.85,2.85,0,0,0,1.11.88"/><path class="cls-9" d="M184.88,154.64a2.56,2.56,0,0,0,1.48-.38,1.16,1.16,0,0,0,.54-1,1,1,0,0,0-.25-.74,1.38,1.38,0,0,0-.59-.37,6.21,6.21,0,0,0-.88-.19,4,4,0,0,1-.79-.2.36.36,0,0,1-.26-.36.41.41,0,0,1,.24-.36,1.42,1.42,0,0,1,.7-.14,2.47,2.47,0,0,1,1.28.33l.4-.79a2.6,2.6,0,0,0-.75-.28,4.11,4.11,0,0,0-.92-.11,2.41,2.41,0,0,0-1.43.38,1.19,1.19,0,0,0-.53,1,1.06,1.06,0,0,0,.25.76,1.38,1.38,0,0,0,.6.38,6,6,0,0,0,.9.19,4.16,4.16,0,0,1,.76.18.33.33,0,0,1,.24.33q0,.49-.94.49a3,3,0,0,1-.83-.12,2.56,2.56,0,0,1-.72-.32l-.4.79a2.68,2.68,0,0,0,.83.36,4,4,0,0,0,1.06.14M181,150.77v-.65h-1v4.46h1v-2.17a1.42,1.42,0,0,1,.34-1,1.26,1.26,0,0,1,1-.36h.24v-1a1.74,1.74,0,0,0-1.59.7m-4.26.13A1.22,1.22,0,0,1,178,152h-2.53a1.24,1.24,0,0,1,.42-.79,1.26,1.26,0,0,1,.85-.3m2.26,1.47a2.46,2.46,0,0,0-.29-1.21,2,2,0,0,0-.8-.81,2.33,2.33,0,0,0-1.17-.29,2.4,2.4,0,0,0-1.19.29,2.11,2.11,0,0,0-.82.81,2.33,2.33,0,0,0-.3,1.17,2.3,2.3,0,0,0,.3,1.18,2.11,2.11,0,0,0,.87.81,3,3,0,0,0,2.33.11,1.88,1.88,0,0,0,.76-.54l-.56-.64a1.63,1.63,0,0,1-1.21.48,1.57,1.57,0,0,1-1-.29,1.21,1.21,0,0,1-.48-.78H179v-.31m-7.41-2.31a2.3,2.3,0,0,0-1,.2,1.86,1.86,0,0,0-.71.55,1.45,1.45,0,0,0-.61-.56,2,2,0,0,0-.89-.19,2.13,2.13,0,0,0-.84.16,1.62,1.62,0,0,0-.63.46v-.57h-1v4.46h1V152.3a1.43,1.43,0,0,1,.31-1,1.1,1.1,0,0,1,.85-.34.93.93,0,0,1,.74.3,1.31,1.31,0,0,1,.26.88v2.42h1V152.3a1.42,1.42,0,0,1,.32-1,1.09,1.09,0,0,1,.85-.35.94.94,0,0,1,.74.3,1.31,1.31,0,0,1,.26.88v2.42h1V152a2,2,0,0,0-.49-1.47,1.82,1.82,0,0,0-1.34-.49m-9,3.68a1.27,1.27,0,0,1-.95-.38,1.56,1.56,0,0,1,0-2,1.37,1.37,0,0,1,1.9,0,1.55,1.55,0,0,1,0,2,1.28,1.28,0,0,1-1,.38m0,.89a2.55,2.55,0,0,0,1.23-.29,2.13,2.13,0,0,0,.85-.81,2.4,2.4,0,0,0,0-2.36,2.15,2.15,0,0,0-.85-.81,2.71,2.71,0,0,0-2.45,0,2.14,2.14,0,0,0-.85.81,2.4,2.4,0,0,0,0,2.36,2.13,2.13,0,0,0,.85.81,2.53,2.53,0,0,0,1.22.29m-3-1a.92.92,0,0,1-.59.18.6.6,0,0,1-.46-.17.71.71,0,0,1-.16-.5V151h1.2v-.84h-1.2v-1h-1v1h-.74V151h.74v2.15a1.48,1.48,0,0,0,.4,1.12,1.58,1.58,0,0,0,1.14.38,2,2,0,0,0,.56-.07,1.22,1.22,0,0,0,.45-.23Zm-5.32,1a2.56,2.56,0,0,0,1.48-.38,1.16,1.16,0,0,0,.54-1,1,1,0,0,0-.25-.74,1.38,1.38,0,0,0-.59-.37,6.18,6.18,0,0,0-.88-.19,4,4,0,0,1-.79-.2.36.36,0,0,1-.25-.36.41.41,0,0,1,.24-.36,1.42,1.42,0,0,1,.7-.14,2.48,2.48,0,0,1,1.28.33l.4-.79a2.59,2.59,0,0,0-.75-.28,4.12,4.12,0,0,0-.92-.11,2.41,2.41,0,0,0-1.43.38,1.19,1.19,0,0,0-.53,1,1.06,1.06,0,0,0,.26.76,1.37,1.37,0,0,0,.6.38,6,6,0,0,0,.9.19,4.16,4.16,0,0,1,.76.18.33.33,0,0,1,.24.33q0,.49-.94.49a3,3,0,0,1-.83-.12,2.59,2.59,0,0,1-.72-.32l-.4.79a2.67,2.67,0,0,0,.83.36,4,4,0,0,0,1.06.14m-3.79-4.52v2.26a1.39,1.39,0,0,1-.33,1,1.17,1.17,0,0,1-.89.35,1,1,0,0,1-.77-.3,1.3,1.3,0,0,1-.27-.9v-2.41h-1v2.55a2,2,0,0,0,.51,1.48,1.94,1.94,0,0,0,1.41.5,2,2,0,0,0,.81-.16,1.66,1.66,0,0,0,.63-.46v.57h1v-4.46Zm-6.26,4.6a3.38,3.38,0,0,0,1.32-.25,2.67,2.67,0,0,0,1-.73l-.7-.67a2,2,0,0,1-1.56.69,2.2,2.2,0,0,1-1.08-.26,1.9,1.9,0,0,1-.74-.73,2.24,2.24,0,0,1,0-2.12,1.9,1.9,0,0,1,.74-.73,2.2,2.2,0,0,1,1.08-.26,2,2,0,0,1,1.56.69l.7-.66a2.69,2.69,0,0,0-1-.73,3.34,3.34,0,0,0-1.31-.25,3.29,3.29,0,0,0-1.6.39,2.89,2.89,0,0,0-1.12,1.07,3.14,3.14,0,0,0,0,3.09,2.86,2.86,0,0,0,1.12,1.07,3.3,3.3,0,0,0,1.6.39"/><path class="cls-9" d="M219.52,152h-1.27v-2.32h1.27a1.67,1.67,0,0,1,1.08.3,1.19,1.19,0,0,1,0,1.68l0,0a1.68,1.68,0,0,1-1.08.3m.05-3.24h-2.41v5.85h1.09v-1.69h1.32a3.23,3.23,0,0,0,1.32-.25,1.91,1.91,0,0,0,.87-.72,2.2,2.2,0,0,0,0-2.22,1.93,1.93,0,0,0-.87-.72,3.24,3.24,0,0,0-1.32-.25m-5.07,5.85h1.09v-5.85H214.5Z"/><path class="cls-9" d="M367.92,86.9a2.36,2.36,0,0,0-.85.15,1.69,1.69,0,0,0-.64.42V85.22h-1v6.2h1V89.16a1.38,1.38,0,0,1,.33-1,1.21,1.21,0,0,1,.91-.35,1,1,0,0,1,.79.3,1.25,1.25,0,0,1,.28.88v2.42h1V88.86a2,2,0,0,0-.51-1.46,1.87,1.87,0,0,0-1.35-.49m-5.3,4.57a2.36,2.36,0,0,0,1.15-.27,1.81,1.81,0,0,0,.76-.77l-.8-.47a1.27,1.27,0,0,1-.48.46,1.41,1.41,0,0,1-1.6-.23,1.38,1.38,0,0,1-.38-1,1.36,1.36,0,0,1,.38-1,1.4,1.4,0,0,1,1.6-.23,1.27,1.27,0,0,1,.48.46l.8-.47a1.73,1.73,0,0,0-.75-.77,2.4,2.4,0,0,0-1.16-.27,2.61,2.61,0,0,0-1.25.29,2.16,2.16,0,0,0-.86.81,2.25,2.25,0,0,0-.31,1.18,2.28,2.28,0,0,0,.31,1.18,2.15,2.15,0,0,0,.86.81,2.62,2.62,0,0,0,1.25.29M358.16,87v2.26a1.39,1.39,0,0,1-.33,1,1.17,1.17,0,0,1-.89.35,1,1,0,0,1-.77-.3,1.29,1.29,0,0,1-.27-.9V87h-1v2.5a2,2,0,0,0,.51,1.47,1.94,1.94,0,0,0,1.41.5,2,2,0,0,0,.81-.16,1.67,1.67,0,0,0,.63-.46v.57h1V87Zm-6.66,3.63a1.27,1.27,0,0,1-1-.38,1.56,1.56,0,0,1,0-2,1.37,1.37,0,0,1,1.9,0,1.55,1.55,0,0,1,0,2,1.28,1.28,0,0,1-1,.38m0,.89a2.55,2.55,0,0,0,1.23-.29,2.14,2.14,0,0,0,.85-.81,2.47,2.47,0,0,0,0-2.36,2.15,2.15,0,0,0-.85-.81,2.71,2.71,0,0,0-2.45,0,2.14,2.14,0,0,0-.85.81,2.47,2.47,0,0,0,0,2.36,2.14,2.14,0,0,0,.85.81,2.53,2.53,0,0,0,1.22.29m-5.29-.06h1.09v-5h1.94v-.92h-5v.92h1.94Zm-5.3.06a.68.68,0,1,0-.48-.2.67.67,0,0,0,.48.2M339.19,87l-1.41,3.3-1.4-3.3h-1.09l2,4.48-.07.18a1.25,1.25,0,0,1-.33.48.71.71,0,0,1-.46.14,1.09,1.09,0,0,1-.41-.08,1.14,1.14,0,0,1-.35-.22l-.42.77a1.48,1.48,0,0,0,.54.3,2.09,2.09,0,0,0,.66.11,1.71,1.71,0,0,0,1-.3,2.25,2.25,0,0,0,.71-1L340.19,87Zm-6,4.52a2.57,2.57,0,0,0,1.48-.38,1.17,1.17,0,0,0,.54-1,1,1,0,0,0-.25-.74,1.37,1.37,0,0,0-.59-.37,6.1,6.1,0,0,0-.88-.19,4.07,4.07,0,0,1-.79-.2.36.36,0,0,1-.25-.36.41.41,0,0,1,.24-.36,1.42,1.42,0,0,1,.7-.14,2.47,2.47,0,0,1,1.28.33l.4-.79a2.56,2.56,0,0,0-.75-.28,4.12,4.12,0,0,0-.92-.11,2.42,2.42,0,0,0-1.43.38,1.19,1.19,0,0,0-.53,1,1.06,1.06,0,0,0,.26.76,1.38,1.38,0,0,0,.6.38,6.16,6.16,0,0,0,.9.19,4.13,4.13,0,0,1,.76.18.33.33,0,0,1,.24.33q0,.49-.94.49a3,3,0,0,1-.83-.12,2.56,2.56,0,0,1-.72-.32l-.4.79a2.67,2.67,0,0,0,.83.36,4,4,0,0,0,1.06.14m-4.89-.76a1,1,0,0,1-.63-.17.53.53,0,0,1-.23-.45q0-.59.9-.59h1.08V90a1,1,0,0,1-.43.51,1.35,1.35,0,0,1-.7.18m.14-3.81a3.75,3.75,0,0,0-1,.14,2.55,2.55,0,0,0-.84.41l.41.76a1.82,1.82,0,0,1,.61-.33,2.43,2.43,0,0,1,.74-.12,1.21,1.21,0,0,1,.83.25.92.92,0,0,1,.28.72v.07h-1.15a2.21,2.21,0,0,0-1.41.36,1.18,1.18,0,0,0-.45,1,1.21,1.21,0,0,0,.2.69,1.36,1.36,0,0,0,.58.48,2.11,2.11,0,0,0,.88.17,2.14,2.14,0,0,0,.86-.15,1.21,1.21,0,0,0,.55-.45v.54h1V88.8a1.82,1.82,0,0,0-.52-1.43,2.18,2.18,0,0,0-1.51-.47m-6.08,3.6V88.89h2.83V88h-2.83V86.48h3.18v-.91h-4.27v5.85h4.39v-.91Z"/><path class="cls-9" d="M55.63,90.58a1.34,1.34,0,0,1-.68-.17,1.23,1.23,0,0,1-.48-.49,1.63,1.63,0,0,1,0-1.47A1.23,1.23,0,0,1,55,88a1.33,1.33,0,0,1,.68-.17,1.26,1.26,0,0,1,1,.39,1.56,1.56,0,0,1,0,2,1.27,1.27,0,0,1-1,.38m.12-3.68A2.06,2.06,0,0,0,55,87a1.76,1.76,0,0,0-.63.44V85.22h-1v6.2h1v-.58a1.62,1.62,0,0,0,.64.48,2.15,2.15,0,0,0,.84.16A2.37,2.37,0,0,0,57,91.2a2,2,0,0,0,.81-.81A2.39,2.39,0,0,0,57.72,88a2.06,2.06,0,0,0-.81-.8,2.38,2.38,0,0,0-1.17-.28M50,87.74a1.22,1.22,0,0,1,1.26,1.09H48.74a1.24,1.24,0,0,1,.42-.79,1.26,1.26,0,0,1,.85-.3m2.26,1.47A2.46,2.46,0,0,0,52,88a2,2,0,0,0-.8-.81A2.34,2.34,0,0,0,50,86.9a2.4,2.4,0,0,0-1.19.29A2.1,2.1,0,0,0,48,88a2.33,2.33,0,0,0-.3,1.17,2.3,2.3,0,0,0,.3,1.2,2.11,2.11,0,0,0,.87.81,3,3,0,0,0,2.33.11,1.89,1.89,0,0,0,.76-.54l-.56-.64a1.63,1.63,0,0,1-1.21.49,1.58,1.58,0,0,1-1-.29,1.21,1.21,0,0,1-.48-.78h3.5v-.31m-5.68-3.64L45.08,90,43.6,85.57h-1L41.09,90l-1.45-4.45H38.51l1.94,5.85h1.16l1.47-4.33,1.45,4.33h1.15l1.94-5.85ZM35,91.48a.68.68,0,1,0-.49-.2.67.67,0,0,0,.49.2M33.24,87l-1.41,3.3L30.42,87H29.34l2,4.48-.07.18a1.25,1.25,0,0,1-.33.48.71.71,0,0,1-.46.14A1.09,1.09,0,0,1,30,92.2a1.14,1.14,0,0,1-.35-.22l-.42.77a1.48,1.48,0,0,0,.53.3,2.09,2.09,0,0,0,.66.11,1.71,1.71,0,0,0,1-.3,2.25,2.25,0,0,0,.71-1L34.24,87Zm-6,4.52a2.57,2.57,0,0,0,1.48-.38,1.17,1.17,0,0,0,.54-1A1,1,0,0,0,29,89.4a1.37,1.37,0,0,0-.59-.37,6.1,6.1,0,0,0-.88-.19,4.07,4.07,0,0,1-.79-.2.36.36,0,0,1-.25-.36.41.41,0,0,1,.24-.36,1.42,1.42,0,0,1,.7-.14,2.47,2.47,0,0,1,1.28.33l.4-.79a2.56,2.56,0,0,0-.75-.28,4.12,4.12,0,0,0-.92-.11,2.42,2.42,0,0,0-1.43.38,1.19,1.19,0,0,0-.53,1,1.06,1.06,0,0,0,.25.76,1.38,1.38,0,0,0,.6.38,6.16,6.16,0,0,0,.9.19,4.12,4.12,0,0,1,.76.18.33.33,0,0,1,.24.33q0,.49-.94.49a3,3,0,0,1-.83-.12,2.56,2.56,0,0,1-.72-.32l-.4.79a2.67,2.67,0,0,0,.83.36,4,4,0,0,0,1.06.14m-4.89-.76a1,1,0,0,1-.63-.17.53.53,0,0,1-.22-.45q0-.59.9-.59h1.08V90a1,1,0,0,1-.43.51,1.35,1.35,0,0,1-.7.18m.14-3.81a3.75,3.75,0,0,0-1,.14,2.55,2.55,0,0,0-.84.41l.41.76a1.82,1.82,0,0,1,.61-.33,2.43,2.43,0,0,1,.74-.12,1.21,1.21,0,0,1,.83.25.92.92,0,0,1,.28.72v.07H22.3a2.21,2.21,0,0,0-1.41.36,1.18,1.18,0,0,0-.45,1,1.21,1.21,0,0,0,.2.69,1.36,1.36,0,0,0,.58.48,2.11,2.11,0,0,0,.88.17,2.14,2.14,0,0,0,.86-.15,1.21,1.21,0,0,0,.55-.45v.54h1V88.8A1.83,1.83,0,0,0,24,87.38a2.18,2.18,0,0,0-1.51-.47m-6.08,3.6V88.89h2.82V88H16.39V86.48h3.18v-.91H15.31v5.85H19.7v-.91Z"/><path class="cls-9" d="M233.93,57.45A1.72,1.72,0,0,1,232.7,57a1.5,1.5,0,0,1-.48-1.15,1.47,1.47,0,0,1,.48-1.14,1.92,1.92,0,0,1,2.45,0,1.48,1.48,0,0,1,.48,1.14,1.51,1.51,0,0,1-.48,1.15,1.71,1.71,0,0,1-1.22.44m1.74-4.22V54a2,2,0,0,0-.83-.61,3,3,0,0,0-1.1-.2,3.06,3.06,0,0,0-1.44.33,2.54,2.54,0,0,0-1,.94,2.86,2.86,0,0,0,0,2.82,2.56,2.56,0,0,0,1,1,3,3,0,0,0,1.44.34,2.86,2.86,0,0,0,1.05-.19,2.14,2.14,0,0,0,.82-.55v.29a1.71,1.71,0,0,1-.43,1.28,1.87,1.87,0,0,1-1.35.42,3.63,3.63,0,0,1-1.13-.18,2.8,2.8,0,0,1-.93-.49l-.59,1a3.24,3.24,0,0,0,1.19.59,5.62,5.62,0,0,0,1.53.2q3,0,3-3V53.23Zm-8.34-.06a2.94,2.94,0,0,0-1.11.2,2,2,0,0,0-.82.58v-.72h-1.24v5.58h1.31V56a1.73,1.73,0,0,1,.42-1.25A1.51,1.51,0,0,1,227,54.3a1.28,1.28,0,0,1,1,.37,1.57,1.57,0,0,1,.35,1.1v3h1.31v-3.2a2.43,2.43,0,0,0-.64-1.83,2.33,2.33,0,0,0-1.69-.62m-5.53-.86a.81.81,0,0,0,.6-.23.79.79,0,0,0,.24-.58.69.69,0,0,0-.24-.54.87.87,0,0,0-.6-.21.84.84,0,0,0-.6.22.77.77,0,0,0,0,1.09l0,0a.84.84,0,0,0,.6.22m-.66,6.5h1.31V53.23h-1.31Zm-4-5.64a2.94,2.94,0,0,0-1.11.2,2,2,0,0,0-.82.58v-.72H214v5.58h1.31V56a1.73,1.73,0,0,1,.42-1.25,1.51,1.51,0,0,1,1.14-.43,1.28,1.28,0,0,1,1,.37,1.57,1.57,0,0,1,.35,1.1v3h1.31v-3.2a2.43,2.43,0,0,0-.64-1.83,2.33,2.33,0,0,0-1.69-.62m-7.4,4.6a1.58,1.58,0,0,1-1.19-.48,2,2,0,0,1,0-2.53,1.71,1.71,0,0,1,2.38,0,1.93,1.93,0,0,1,0,2.53,1.59,1.59,0,0,1-1.19.48m0,1.12a3.19,3.19,0,0,0,1.54-.37,2.67,2.67,0,0,0,1.06-1,2.88,2.88,0,0,0,.38-1.48,2.85,2.85,0,0,0-.38-1.47,2.68,2.68,0,0,0-1.06-1,3.39,3.39,0,0,0-3.06,0,2.68,2.68,0,0,0-1.06,1,2.84,2.84,0,0,0-.38,1.47,2.87,2.87,0,0,0,.38,1.48,2.66,2.66,0,0,0,1.06,1,3.17,3.17,0,0,0,1.53.37m-4.87-6.57a.81.81,0,0,0,.6-.23.79.79,0,0,0,.24-.58.69.69,0,0,0-.24-.54.86.86,0,0,0-.6-.21.84.84,0,0,0-.6.22.77.77,0,0,0,0,1.09l0,0a.84.84,0,0,0,.6.22m-.66,6.5h1.31V53.23h-1.31Zm-3.66.07a3.21,3.21,0,0,0,1.85-.47,1.46,1.46,0,0,0,.68-1.25,1.29,1.29,0,0,0-.31-.92,1.72,1.72,0,0,0-.74-.46,7.6,7.6,0,0,0-1.1-.24,5,5,0,0,1-1-.25.45.45,0,0,1-.32-.44.52.52,0,0,1,.3-.45,1.78,1.78,0,0,1,.87-.17,3.09,3.09,0,0,1,1.6.42l.5-1a3.23,3.23,0,0,0-.94-.35,5.18,5.18,0,0,0-1.15-.13,3,3,0,0,0-1.79.48,1.49,1.49,0,0,0-.66,1.27,1.33,1.33,0,0,0,.32,1,1.72,1.72,0,0,0,.75.47,7.72,7.72,0,0,0,1.12.24,5.21,5.21,0,0,1,1,.22.41.41,0,0,1,.3.41q0,.62-1.17.62a3.75,3.75,0,0,1-1-.15,3.2,3.2,0,0,1-.9-.4l-.5,1a3.32,3.32,0,0,0,1,.45,5,5,0,0,0,1.33.18m-4.09-6.57a.81.81,0,0,0,.6-.23.79.79,0,0,0,.24-.58.69.69,0,0,0-.24-.54.87.87,0,0,0-.6-.21.84.84,0,0,0-.6.22.77.77,0,0,0,0,1.09l0,0a.84.84,0,0,0,.6.22m-.66,6.5h1.31V53.23h-1.31Zm-2.07-5.58L192,57.37l-1.74-4.14H188.9l2.39,5.58h1.35L195,53.23Zm-8,4.53a1.58,1.58,0,0,1-1.19-.48,2,2,0,0,1,0-2.53,1.58,1.58,0,0,1,1.19-.48,1.6,1.6,0,0,1,1.19.48,1.93,1.93,0,0,1,0,2.53,1.6,1.6,0,0,1-1.19.48m0,1.12a3.19,3.19,0,0,0,1.54-.37,2.66,2.66,0,0,0,1.06-1,2.87,2.87,0,0,0,.38-1.48,2.84,2.84,0,0,0-.38-1.47,2.68,2.68,0,0,0-1.06-1,3.39,3.39,0,0,0-3.06,0,2.68,2.68,0,0,0-1.06,1,2.85,2.85,0,0,0-.38,1.47,2.88,2.88,0,0,0,.38,1.48,2.67,2.67,0,0,0,1.06,1,3.16,3.16,0,0,0,1.53.37M180.16,54v-.81h-1.24v5.58h1.31V56.1a1.77,1.77,0,0,1,.43-1.28,1.58,1.58,0,0,1,1.19-.45h.3V53.16a2.18,2.18,0,0,0-2,.88m-5.6,1.51H173v-2.9h1.59a2.08,2.08,0,0,1,1.35.38,1.49,1.49,0,0,1,0,2.11l0,0a2.09,2.09,0,0,1-1.35.38m.06-4.06h-3v7.32H173V56.7h1.65a4,4,0,0,0,1.66-.31,2.4,2.4,0,0,0,1.08-.9,2.75,2.75,0,0,0,0-2.77,2.41,2.41,0,0,0-1.08-.9,4,4,0,0,0-1.66-.31m-5.27,7.39a.88.88,0,1,0-.86-.9s0,0,0,0a.85.85,0,0,0,.83.87h0m-2.14-5.65-1.76,4.13-1.76-4.13h-1.36l2.43,5.6-.09.22a1.58,1.58,0,0,1-.41.6.89.89,0,0,1-.57.18,1.35,1.35,0,0,1-.52-.11,1.43,1.43,0,0,1-.44-.28l-.52,1a1.82,1.82,0,0,0,.67.38,2.59,2.59,0,0,0,.83.14,2.12,2.12,0,0,0,1.26-.37,2.81,2.81,0,0,0,.89-1.28l2.61-6Zm-7.52,5.65a3.2,3.2,0,0,0,1.85-.47,1.46,1.46,0,0,0,.68-1.25,1.28,1.28,0,0,0-.31-.92,1.72,1.72,0,0,0-.74-.46,7.63,7.63,0,0,0-1.1-.24,5,5,0,0,1-1-.25.45.45,0,0,1-.32-.44.52.52,0,0,1,.3-.45,1.78,1.78,0,0,1,.87-.17,3.09,3.09,0,0,1,1.6.42l.5-1a3.23,3.23,0,0,0-.94-.35,5.19,5.19,0,0,0-1.15-.13,3,3,0,0,0-1.79.48,1.49,1.49,0,0,0-.66,1.27,1.33,1.33,0,0,0,.32,1,1.72,1.72,0,0,0,.75.47,7.72,7.72,0,0,0,1.12.24,5.24,5.24,0,0,1,1,.22.41.41,0,0,1,.3.41q0,.62-1.17.62a3.75,3.75,0,0,1-1-.15,3.2,3.2,0,0,1-.9-.4l-.5,1a3.34,3.34,0,0,0,1,.45,5,5,0,0,0,1.33.18m-6.11-1a1.29,1.29,0,0,1-.78-.21.66.66,0,0,1-.28-.56q0-.74,1.13-.74H155v.65a1.23,1.23,0,0,1-.54.64,1.7,1.7,0,0,1-.87.22m.18-4.76a4.71,4.71,0,0,0-1.31.18,3.18,3.18,0,0,0-1.06.51l.51,1a2.28,2.28,0,0,1,.77-.41,3,3,0,0,1,.92-.15,1.52,1.52,0,0,1,1,.31,1.14,1.14,0,0,1,.35.9v.08h-1.44a2.78,2.78,0,0,0-1.76.45,1.48,1.48,0,0,0-.56,1.21,1.51,1.51,0,0,0,.26.86,1.7,1.7,0,0,0,.73.6,2.62,2.62,0,0,0,1.1.21,2.67,2.67,0,0,0,1.07-.19,1.51,1.51,0,0,0,.69-.56v.68h1.23V55.54a2.28,2.28,0,0,0-.65-1.78,2.72,2.72,0,0,0-1.89-.59m-7.6,4.5v-2h3.53V54.53h-3.53v-1.9h4V51.49H144.8v7.32h5.49V57.67Z"/><path class="cls-9" d="M235.34,66.25a.87.87,0,0,1-.44-.11.8.8,0,0,1-.31-.32,1.06,1.06,0,0,1,0-1,.8.8,0,0,1,.31-.32.93.93,0,0,1,.88,0,.8.8,0,0,1,.31.32,1.06,1.06,0,0,1,0,1,.8.8,0,0,1-.31.32.87.87,0,0,1-.44.11m.85-3.49v1.49a1.06,1.06,0,0,0-.41-.29,1.37,1.37,0,0,0-.53-.1,1.52,1.52,0,0,0-.75.18,1.33,1.33,0,0,0-.52.52,1.69,1.69,0,0,0,0,1.56,1.33,1.33,0,0,0,.52.52,1.53,1.53,0,0,0,.75.18,1.4,1.4,0,0,0,.55-.1,1.05,1.05,0,0,0,.42-.31v.38h.65v-4Zm-3.73,1.13v1.47a.91.91,0,0,1-.21.65.76.76,0,0,1-.58.22.65.65,0,0,1-.5-.19.84.84,0,0,1-.18-.58V63.89h-.68v1.66a1.28,1.28,0,0,0,.33,1,1.26,1.26,0,0,0,.92.32,1.31,1.31,0,0,0,.53-.11,1.08,1.08,0,0,0,.41-.3v.37h.65v-2.9Zm-4.33,2.36a.82.82,0,0,1-.62-.25,1,1,0,0,1,0-1.32.89.89,0,0,1,1.24,0,1,1,0,0,1,0,1.32.83.83,0,0,1-.62.25m0,.58a1.66,1.66,0,0,0,.8-.19,1.39,1.39,0,0,0,.55-.53,1.59,1.59,0,0,0,0-1.54,1.39,1.39,0,0,0-.55-.53,1.66,1.66,0,0,0-.8-.19,1.64,1.64,0,0,0-.79.19,1.39,1.39,0,0,0-.55.53,1.59,1.59,0,0,0,0,1.54,1.39,1.39,0,0,0,.55.53,1.64,1.64,0,0,0,.79.19m-2.87,0h.68v-4h-.68Zm-1.8,0a1.53,1.53,0,0,0,.75-.18,1.17,1.17,0,0,0,.49-.5l-.52-.3a.82.82,0,0,1-.31.3.91.91,0,0,1-1-.15,1,1,0,0,1,0-1.32.91.91,0,0,1,1-.15.83.83,0,0,1,.31.3l.52-.3a1.13,1.13,0,0,0-.49-.5,1.57,1.57,0,0,0-.75-.17,1.69,1.69,0,0,0-.81.19,1.4,1.4,0,0,0-.56.53,1.57,1.57,0,0,0,0,1.54,1.4,1.4,0,0,0,.56.53,1.7,1.7,0,0,0,.81.19"/><path class="cls-9" d="M68.1,100.92a.73.73,0,0,1-.24.14.9.9,0,0,1-.29,0,.61.61,0,0,1-.47-.17.68.68,0,0,1-.16-.49V98.28H68v-.41H66.9v-.79h-.49v.79H65.8v.41h.65v2.19a1,1,0,0,0,.95,1.05h.11a1.39,1.39,0,0,0,.42-.07.92.92,0,0,0,.34-.19Zm-4.55-3.08a1.78,1.78,0,0,0-.82.18,1.36,1.36,0,0,0-.56.51v-.67H61.7v3.62h.49v-1.9a1.32,1.32,0,0,1,.34-1,1.24,1.24,0,0,1,.93-.35,1.06,1.06,0,0,1,.8.3,1.2,1.2,0,0,1,.28.86v2.05H65v-2.1a1.55,1.55,0,0,0-.4-1.15,1.48,1.48,0,0,0-1.08-.4m-4.6.42a1.24,1.24,0,0,1,.89.33,1.31,1.31,0,0,1,.4.87H57.67a1.31,1.31,0,0,1,.4-.87,1.23,1.23,0,0,1,.88-.33m1.76,1.42a2,2,0,0,0-.23-1,1.65,1.65,0,0,0-.63-.65,1.75,1.75,0,0,0-.9-.23A1.77,1.77,0,0,0,58,98a1.66,1.66,0,0,0-.63.65,1.94,1.94,0,0,0-.23,1,1.87,1.87,0,0,0,.24,1,1.71,1.71,0,0,0,.67.66,2.17,2.17,0,0,0,1.78.09,1.53,1.53,0,0,0,.6-.44l-.27-.32a1.37,1.37,0,0,1-.49.35,1.57,1.57,0,0,1-.62.12,1.44,1.44,0,0,1-1-.35,1.29,1.29,0,0,1-.43-.91h3ZM55.94,97a.35.35,0,0,0,.36-.34s0,0,0,0a.32.32,0,0,0-.1-.24.38.38,0,0,0-.51,0,.33.33,0,0,0-.1.24.34.34,0,0,0,.1.25A.35.35,0,0,0,56,97m-.25,4.42h.49V97.87H55.7Zm-1.85,0h.49V96.38h-.49Zm-2.76,0a2.66,2.66,0,0,0,1-.18,2.07,2.07,0,0,0,.77-.53l-.32-.32a1.89,1.89,0,0,1-1.42.58,2.1,2.1,0,0,1-1-.26,1.92,1.92,0,0,1-.73-.72,2.09,2.09,0,0,1,0-2,1.91,1.91,0,0,1,.73-.72,2.1,2.1,0,0,1,1-.26,1.92,1.92,0,0,1,1.42.57l.32-.32a2,2,0,0,0-.77-.52,2.67,2.67,0,0,0-1-.18,2.64,2.64,0,0,0-1.29.32,2.31,2.31,0,0,0-.91.88,2.58,2.58,0,0,0,0,2.51,2.32,2.32,0,0,0,.9.88,2.64,2.64,0,0,0,1.29.32m-6.29-3v-.71h-.47v3.62h.49V99.65a1.4,1.4,0,0,1,.32-1A1.15,1.15,0,0,1,46,98.3h.12v-.48a1.74,1.74,0,0,0-.84.19,1.18,1.18,0,0,0-.51.55m-3.22-.32a1.24,1.24,0,0,1,.88.33,1.31,1.31,0,0,1,.4.87H40.28a1.31,1.31,0,0,1,.4-.87,1.23,1.23,0,0,1,.88-.33m1.76,1.42a2,2,0,0,0-.23-1,1.65,1.65,0,0,0-.63-.65,1.75,1.75,0,0,0-.9-.23,1.77,1.77,0,0,0-.91.23,1.66,1.66,0,0,0-.63.65,1.94,1.94,0,0,0-.23,1,1.87,1.87,0,0,0,.24,1,1.71,1.71,0,0,0,.67.66,2.17,2.17,0,0,0,1.78.09,1.53,1.53,0,0,0,.6-.44l-.28-.32a1.37,1.37,0,0,1-.49.35,1.57,1.57,0,0,1-.62.12,1.44,1.44,0,0,1-1-.35,1.29,1.29,0,0,1-.43-.91h3Zm-4.09,1.24A.72.72,0,0,1,39,101a.91.91,0,0,1-.29,0,.61.61,0,0,1-.47-.17.68.68,0,0,1-.16-.49v-2.1h1.1v-.41h-1.1v-.79h-.49v.79h-.65v.41h.65v2.19a1,1,0,0,0,.95,1.05h.11a1.39,1.39,0,0,0,.42-.07.92.92,0,0,0,.34-.19ZM35.1,98.56v-.71h-.47v3.62h.49V99.65a1.4,1.4,0,0,1,.32-1,1.15,1.15,0,0,1,.9-.35h.12v-.48a1.74,1.74,0,0,0-.84.19,1.19,1.19,0,0,0-.51.55m-3.22-.32a1.25,1.25,0,0,1,.89.33,1.31,1.31,0,0,1,.4.87H30.59a1.31,1.31,0,0,1,.4-.87,1.23,1.23,0,0,1,.88-.33m1.76,1.42a2,2,0,0,0-.23-1,1.66,1.66,0,0,0-.63-.65,1.75,1.75,0,0,0-.9-.23A1.77,1.77,0,0,0,31,98a1.67,1.67,0,0,0-.63.65,2,2,0,0,0-.23,1,1.87,1.87,0,0,0,.24,1,1.7,1.7,0,0,0,.67.66,2.17,2.17,0,0,0,1.78.09,1.54,1.54,0,0,0,.6-.44l-.28-.32a1.36,1.36,0,0,1-.49.35,1.57,1.57,0,0,1-.62.12,1.44,1.44,0,0,1-1-.35,1.29,1.29,0,0,1-.43-.91h3Zm-4.77-2.6a.35.35,0,0,0,.36-.34s0,0,0,0a.32.32,0,0,0-.1-.24.38.38,0,0,0-.51,0,.33.33,0,0,0-.1.24.34.34,0,0,0,.1.25.35.35,0,0,0,.26.1m-.25,4.42h.49v-3.6h-.49Zm-2.4,0a1.89,1.89,0,0,0,1.1-.28.88.88,0,0,0,.4-.75.78.78,0,0,0-.19-.55,1,1,0,0,0-.45-.28,6.4,6.4,0,0,0-.7-.17,5.34,5.34,0,0,1-.55-.12.83.83,0,0,1-.33-.18.43.43,0,0,1-.13-.33.51.51,0,0,1,.24-.43,1.24,1.24,0,0,1,.71-.16,1.82,1.82,0,0,1,1.07.31l.21-.39A2,2,0,0,0,27,97.9a2.73,2.73,0,0,0-.7-.09,1.7,1.7,0,0,0-1,.29.9.9,0,0,0-.38.74.82.82,0,0,0,.19.57,1,1,0,0,0,.46.29,6.17,6.17,0,0,0,.71.17,4.77,4.77,0,0,1,.53.11.87.87,0,0,1,.33.17.39.39,0,0,1,.13.31.49.49,0,0,1-.24.44,1.37,1.37,0,0,1-.73.15,2.26,2.26,0,0,1-.72-.11,1.85,1.85,0,0,1-.57-.29l-.22.38a1.8,1.8,0,0,0,.63.32,2.78,2.78,0,0,0,.84.13m-3.94-.39a1.1,1.1,0,0,1-.68-.18.59.59,0,0,1-.24-.5q0-.65.93-.65h1.14v.59A1.12,1.12,0,0,1,23,101a1.29,1.29,0,0,1-.71.19m.17-3.3a2.58,2.58,0,0,0-.81.13,2,2,0,0,0-.66.36l.22.36a1.64,1.64,0,0,1,.54-.31,1.93,1.93,0,0,1,.66-.11,1.08,1.08,0,0,1,.76.24.93.93,0,0,1,.26.71v.22H22.28a1.63,1.63,0,0,0-1.06.28,1,1,0,0,0-.1,1.41l.1.1a1.49,1.49,0,0,0,1,.29,1.71,1.71,0,0,0,.76-.16,1.12,1.12,0,0,0,.49-.44v.57h.47V99.25a1.37,1.37,0,0,0-.38-1,1.53,1.53,0,0,0-1.09-.35m-4.08,3.25a1.36,1.36,0,0,1-.69-.18,1.25,1.25,0,0,1-.48-.5,1.64,1.64,0,0,1,0-1.47,1.25,1.25,0,0,1,.48-.5,1.44,1.44,0,0,1,1.38,0,1.24,1.24,0,0,1,.49.5,1.63,1.63,0,0,1,0,1.47,1.24,1.24,0,0,1-.49.5,1.36,1.36,0,0,1-.69.18m0-3.25a1.72,1.72,0,0,0-.8.18,1.52,1.52,0,0,0-.58.53V96.38h-.49v5.11H17v-.72a1.48,1.48,0,0,0,.58.56,1.7,1.7,0,0,0,.82.19,1.84,1.84,0,0,0,.92-.23,1.66,1.66,0,0,0,.65-.65,2.07,2.07,0,0,0,0-1.91,1.65,1.65,0,0,0-.65-.65,1.86,1.86,0,0,0-.92-.23m-4.7,3.25a1.36,1.36,0,0,1-.69-.18,1.25,1.25,0,0,1-.48-.5,1.64,1.64,0,0,1,0-1.47,1.25,1.25,0,0,1,.48-.5,1.44,1.44,0,0,1,1.38,0,1.24,1.24,0,0,1,.49.5,1.63,1.63,0,0,1,0,1.47,1.24,1.24,0,0,1-.49.5,1.36,1.36,0,0,1-.69.18m0-3.25a1.72,1.72,0,0,0-.8.18,1.52,1.52,0,0,0-.58.53V96.38h-.49v5.11h.47v-.72a1.48,1.48,0,0,0,.58.56,1.7,1.7,0,0,0,.82.19,1.84,1.84,0,0,0,.92-.23,1.66,1.66,0,0,0,.65-.65,2.07,2.07,0,0,0,0-1.91,1.65,1.65,0,0,0-.65-.65,1.86,1.86,0,0,0-.92-.23m-4.62.42a1.24,1.24,0,0,1,.89.33,1.31,1.31,0,0,1,.4.87H7.82a1.31,1.31,0,0,1,.4-.87,1.23,1.23,0,0,1,.88-.33m1.76,1.42a2,2,0,0,0-.23-1A1.65,1.65,0,0,0,10,98a1.87,1.87,0,0,0-1.81,0,1.67,1.67,0,0,0-.63.65,1.94,1.94,0,0,0-.23,1,1.87,1.87,0,0,0,.24,1,1.71,1.71,0,0,0,.67.66,2.21,2.21,0,0,0,1.8.09,1.53,1.53,0,0,0,.6-.44l-.28-.32a1.37,1.37,0,0,1-.49.35,1.57,1.57,0,0,1-.62.12,1.44,1.44,0,0,1-1-.35,1.3,1.3,0,0,1-.43-.91h3Zm-4.2-3-1.41,4.17L3.83,96.67H3.35l-1.44,4.15L.52,96.67H0l1.63,4.82h.53l1.42-4.11L5,101.49h.54l1.63-4.82Z"/><path class="cls-9" d="M378.66,100.92a.71.71,0,0,1-.24.14.9.9,0,0,1-.29,0,.61.61,0,0,1-.46-.17.68.68,0,0,1-.16-.49V98.28h1.1v-.41h-1.1v-.79H377v.79h-.65v.41H377v2.19a1,1,0,0,0,.95,1.05h.11a1.4,1.4,0,0,0,.42-.06.93.93,0,0,0,.34-.19Zm-4.55-3.08a1.79,1.79,0,0,0-.82.18,1.36,1.36,0,0,0-.55.51v-.67h-.47v3.62h.49v-1.9a1.31,1.31,0,0,1,.34-1,1.24,1.24,0,0,1,.93-.35,1.06,1.06,0,0,1,.81.3,1.2,1.2,0,0,1,.28.86v2.05h.49v-2.1a1.55,1.55,0,0,0-.4-1.15,1.48,1.48,0,0,0-1.08-.4m-4.6.42a1.24,1.24,0,0,1,.89.33,1.32,1.32,0,0,1,.4.87h-2.57a1.31,1.31,0,0,1,.4-.87,1.23,1.23,0,0,1,.88-.33m1.76,1.42a2,2,0,0,0-.23-1,1.66,1.66,0,0,0-.63-.65,1.86,1.86,0,0,0-1.81,0,1.67,1.67,0,0,0-.63.65,1.94,1.94,0,0,0-.23,1,1.89,1.89,0,0,0,.24,1,1.71,1.71,0,0,0,.67.66,2.21,2.21,0,0,0,1.8.09,1.56,1.56,0,0,0,.6-.44l-.28-.32a1.37,1.37,0,0,1-.49.36,1.57,1.57,0,0,1-.62.12,1.44,1.44,0,0,1-1-.35,1.3,1.3,0,0,1-.43-.91h3ZM366.52,97a.35.35,0,0,0,.36-.34s0,0,0,0a.32.32,0,0,0-.1-.24.35.35,0,0,0-.26-.1.34.34,0,0,0-.25.1.33.33,0,0,0-.1.24.35.35,0,0,0,.35.35h0m-.25,4.42h.49V97.87h-.49Zm-1.85,0h.49V96.38h-.49Zm-2.76,0a2.66,2.66,0,0,0,1-.18,2.08,2.08,0,0,0,.77-.53l-.32-.32a1.9,1.9,0,0,1-1.43.58,2.1,2.1,0,0,1-1-.26A1.92,1.92,0,0,1,360,100a2.09,2.09,0,0,1,0-2,1.92,1.92,0,0,1,.73-.72,2.1,2.1,0,0,1,1-.26,1.92,1.92,0,0,1,1.43.57l.32-.32a2.07,2.07,0,0,0-.77-.52,2.82,2.82,0,0,0-2.29.14,2.32,2.32,0,0,0-.9.88,2.57,2.57,0,0,0,0,2.51,2.31,2.31,0,0,0,.9.88,2.63,2.63,0,0,0,1.29.32m-7.19-.44a1.37,1.37,0,0,1-.69-.18,1.25,1.25,0,0,1-.48-.5,1.63,1.63,0,0,1,0-1.47,1.25,1.25,0,0,1,.48-.5,1.39,1.39,0,0,1,1.37,0,1.25,1.25,0,0,1,.48.5,1.63,1.63,0,0,1,0,1.47,1.25,1.25,0,0,1-.48.5,1.36,1.36,0,0,1-.68.18m1.34-4.71v2.18a1.52,1.52,0,0,0-.58-.53,1.72,1.72,0,0,0-.8-.18,1.86,1.86,0,0,0-.92.23,1.65,1.65,0,0,0-.65.65,2.07,2.07,0,0,0,0,1.91,1.67,1.67,0,0,0,.65.66,1.84,1.84,0,0,0,.92.23,1.7,1.7,0,0,0,.82-.19,1.48,1.48,0,0,0,.58-.56v.72h.47V96.38Zm-4.42.7a.34.34,0,0,0,.36-.36.32.32,0,0,0-.1-.24.39.39,0,0,0-.52,0,.33.33,0,0,0-.1.24.34.34,0,0,0,.1.25.35.35,0,0,0,.26.1m-.25,4.42h.49V97.87h-.49Zm-2.84-.4a1.37,1.37,0,0,1-.69-.18,1.25,1.25,0,0,1-.48-.5,1.64,1.64,0,0,1,0-1.47,1.25,1.25,0,0,1,.48-.5,1.45,1.45,0,0,1,1.38,0,1.23,1.23,0,0,1,.48.5,1.67,1.67,0,0,1,0,1.47,1.23,1.23,0,0,1-.48.5,1.37,1.37,0,0,1-.69.18m0,.43a1.88,1.88,0,0,0,.94-.24,1.7,1.7,0,0,0,.66-.66,2,2,0,0,0,0-1.9,1.68,1.68,0,0,0-.66-.65,2,2,0,0,0-1.89,0,1.71,1.71,0,0,0-.66.65,2,2,0,0,0,0,1.9,1.73,1.73,0,0,0,.66.66,1.88,1.88,0,0,0,.94.24m-3.68-2.95v-.71h-.47v3.62h.49V99.65a1.4,1.4,0,0,1,.32-1,1.16,1.16,0,0,1,.9-.35H346v-.47a1.74,1.74,0,0,0-.84.19,1.19,1.19,0,0,0-.51.55M341,101.08a1.37,1.37,0,0,1-.69-.18,1.25,1.25,0,0,1-.48-.5,1.63,1.63,0,0,1,0-1.47,1.25,1.25,0,0,1,.48-.5,1.44,1.44,0,0,1,1.38,0,1.25,1.25,0,0,1,.48.5,1.64,1.64,0,0,1,0,1.47,1.25,1.25,0,0,1-.48.5,1.36,1.36,0,0,1-.69.18m1.34-4.71v2.18a1.52,1.52,0,0,0-.58-.53,1.72,1.72,0,0,0-.8-.18,1.86,1.86,0,0,0-.92.23,1.65,1.65,0,0,0-.65.65,2.07,2.07,0,0,0,0,1.91,1.67,1.67,0,0,0,.65.66,1.84,1.84,0,0,0,.92.23,1.7,1.7,0,0,0,.82-.19,1.48,1.48,0,0,0,.58-.56v.72h.47V96.38Zm-5.65,1.46a1.79,1.79,0,0,0-.82.18,1.36,1.36,0,0,0-.55.51v-.67h-.47v3.62h.49v-1.9a1.31,1.31,0,0,1,.34-1,1.24,1.24,0,0,1,.93-.35,1.06,1.06,0,0,1,.81.3,1.2,1.2,0,0,1,.28.86v2.05h.49v-2.1a1.55,1.55,0,0,0-.4-1.15,1.48,1.48,0,0,0-1.08-.4m-6.16,1.95,1.16-2.59,1.16,2.59Zm3.08,1.7h.54L332,96.61h-.5l-2.2,4.82h.53l.58-1.29H333Zm-6.92-.72a.35.35,0,0,0-.26.11.38.38,0,0,0,0,.48.35.35,0,0,0,.18.13l-.23,1h.33l.29-1a1.86,1.86,0,0,0,.07-.22.74.74,0,0,0,0-.18.37.37,0,0,0-.1-.26.35.35,0,0,0-.26-.11m-3,.76a2.52,2.52,0,0,0,1-.18,1.32,1.32,0,0,0,.6-.47,1.19,1.19,0,0,0,.2-.67,1,1,0,0,0-.23-.7,1.42,1.42,0,0,0-.55-.39,7.14,7.14,0,0,0-.86-.26q-.45-.11-.71-.2a1.15,1.15,0,0,1-.44-.27.63.63,0,0,1-.18-.47.76.76,0,0,1,.32-.63,1.56,1.56,0,0,1,1-.24,2.43,2.43,0,0,1,.67.1,2.39,2.39,0,0,1,.65.3l.17-.41a2.34,2.34,0,0,0-.68-.31,2.91,2.91,0,0,0-.81-.11,2.41,2.41,0,0,0-1,.18,1.32,1.32,0,0,0-.59.48A1.21,1.21,0,0,0,322,98a1,1,0,0,0,.23.71,1.43,1.43,0,0,0,.55.39,7.45,7.45,0,0,0,.87.26,6.8,6.8,0,0,1,.71.2,1.19,1.19,0,0,1,.43.26.61.61,0,0,1,.18.46.73.73,0,0,1-.32.62,1.63,1.63,0,0,1-1,.24,2.54,2.54,0,0,1-.89-.16,1.9,1.9,0,0,1-.7-.42l-.2.39a1.9,1.9,0,0,0,.76.46,3.12,3.12,0,0,0,1,.17m-5-.45a2.1,2.1,0,0,1-1-.26,1.88,1.88,0,0,1-.73-.72,2.11,2.11,0,0,1,0-2,1.88,1.88,0,0,1,.73-.72,2.2,2.2,0,0,1,2.07,0,1.88,1.88,0,0,1,.72.72,2.13,2.13,0,0,1,0,2,1.88,1.88,0,0,1-.72.72,2.08,2.08,0,0,1-1,.26m0,.45a2.63,2.63,0,0,0,1.29-.32,2.35,2.35,0,0,0,.91-.88,2.56,2.56,0,0,0,0-2.51A2.35,2.35,0,0,0,320,97a2.8,2.8,0,0,0-2.59,0,2.33,2.33,0,0,0-.91.88,2.57,2.57,0,0,0,0,2.51,2.34,2.34,0,0,0,.91.88,2.65,2.65,0,0,0,1.3.32m-3.82-4.46a.34.34,0,0,0,.25-.1.35.35,0,0,0,.1-.26.32.32,0,0,0-.1-.24.37.37,0,0,0-.51,0,.33.33,0,0,0-.1.24.34.34,0,0,0,.1.25.35.35,0,0,0,.26.1m-.25,4.42h.49V97.87h-.49Z"/></g></g></g></g></g></svg>