<svg xmlns="http://www.w3.org/2000/svg" xmlns:xlink="http://www.w3.org/1999/xlink" viewBox="0 0 29.53 50.01"><defs><style>.cls-1,.cls-3,.cls-4,.cls-6{fill:none;}.cls-2{clip-path:url(#clip-path);}.cls-3,.cls-4,.cls-6{stroke:#fab428;}.cls-3,.cls-6{stroke-linecap:round;stroke-linejoin:round;}.cls-3,.cls-4{stroke-width:2.53px;}.cls-5{fill:#fab428;}.cls-6{stroke-width:1.69px;}</style><clipPath id="clip-path" transform="translate(0 0)"><rect class="cls-1" width="29.53" height="50.01"/></clipPath></defs><title>qualitativ</title><g id="Ebene_2" data-name="Ebene 2"><g id="provisioning_Bild" data-name="provisioning Bild"><g class="cls-2"><path class="cls-3" d="M7.6,26.4c.06.84,0,22.35,0,22.35l7.17-6.12,7.17,6.12V26.4" transform="translate(0 0)"/><circle class="cls-4" cx="14.76" cy="14.76" r="13.5"/></g><polygon class="cls-5" points="14.76 9.89 13.08 13.16 9.15 13.61 12.04 16.09 11.29 19.64 14.76 17.89 18.23 19.64 17.49 16.09 20.38 13.61 16.45 13.16 14.76 9.89"/><polygon class="cls-6" points="14.76 9.89 13.08 13.16 9.15 13.61 12.04 16.09 11.29 19.64 14.76 17.89 18.23 19.64 17.49 16.09 20.38 13.61 16.45 13.16 14.76 9.89"/></g></g></svg>