<svg xmlns="http://www.w3.org/2000/svg" xmlns:xlink="http://www.w3.org/1999/xlink" viewBox="0 0 118.58 136.54"><defs><style>.cls-1,.cls-4{fill:none;}.cls-2{fill:#f9b328;}.cls-3{clip-path:url(#clip-path);}.cls-4{stroke:#fff;stroke-width:2.06px;}</style><clipPath id="clip-path" transform="translate(0)"><rect class="cls-1" width="118.58" height="136.53"/></clipPath></defs><title>software_entwicklung</title><g id="Ebene_2" data-name="Ebene 2"><g id="provisioning_Bild" data-name="provisioning Bild"><polygon class="cls-2" points="59.29 0 0 34.13 0 102.4 59.29 136.53 118.58 102.4 118.58 34.13 59.29 0"/><g class="cls-3"><path class="cls-4" d="M61.11,80.69a.82.82,0,0,0-.83.83V92.76a.82.82,0,0,0,.83.83H72.35a.82.82,0,0,0,.83-.83V81.52a.82.82,0,0,0-.83-.83Zm-1.68,0a.82.82,0,0,1,.83.83V92.76a.82.82,0,0,1-.83.83H48.19a.82.82,0,0,1-.83-.83V81.52a.82.82,0,0,1,.83-.83ZM35.28,54.85a.82.82,0,0,0-.83.83V66.92a.82.82,0,0,0,.83.83H46.52a.82.82,0,0,0,.83-.83V55.68a.82.82,0,0,0-.83-.83Zm42.15,3.79a.82.82,0,0,1,1.14.31l5.62,9.73a.82.82,0,0,1-.31,1.14l-9.73,5.62A.82.82,0,0,1,73,75.13l-5.62-9.73a.82.82,0,0,1,.31-1.14Zm-25-5.38a.82.82,0,0,0,0,1.18l7.95,7.95a.82.82,0,0,0,1.18,0l7.95-7.95a.81.81,0,0,0,0-1.18l-7.95-7.95a.82.82,0,0,0-1.18,0Zm34.46-13a.82.82,0,0,1,.83.83V52.34a.82.82,0,0,1-.83.83H75.69a.82.82,0,0,1-.83-.83V41.1a.82.82,0,0,1,.83-.83ZM48.19,67.77a.82.82,0,0,0-.83.83V79.84a.82.82,0,0,0,.83.83H59.43a.82.82,0,0,0,.83-.83V68.6a.82.82,0,0,0-.83-.83Zm-1.68,0a.82.82,0,0,1,.83.83V79.84a.82.82,0,0,1-.83.83H35.28a.82.82,0,0,1-.83-.83V68.6a.82.82,0,0,1,.83-.83ZM35.28,80.69a.82.82,0,0,0-.83.83V92.76a.82.82,0,0,0,.83.83H46.52a.82.82,0,0,0,.83-.83V81.52a.82.82,0,0,0-.83-.83Z" transform="translate(0)"/></g></g></g></svg>