<svg xmlns="http://www.w3.org/2000/svg" xmlns:xlink="http://www.w3.org/1999/xlink" viewBox="0 0 194.08 39.77"><defs><style>.cls-1{fill:none;}.cls-2{clip-path:url(#clip-path);}.cls-3{fill:#f9b328;}.cls-4{fill:#fff;}</style><clipPath id="clip-path" transform="translate(0)"><rect class="cls-1" width="194.08" height="39.76"/></clipPath></defs><title>Logo_white</title><g id="Ebene_2" data-name="Ebene 2"><g id="provisioning_Bild" data-name="provisioning Bild"><g class="cls-2"><path class="cls-3" d="M26.87,32.12A8.72,8.72,0,0,0,30,38.23c5.57,4.22,16.31-.57,24-10.71a35.35,35.35,0,0,0,6.67-14.11H55.84A30,30,0,0,1,51.3,24L49.71,13.41H45.64l2.49,14.76c-6.5,7.39-14.64,10.71-19,7.42a6.62,6.62,0,0,1-2.28-3.47M15.45,11.31l.6-3.17H4.23L0,28.23H12l.69-3.17H4.72L5.9,19.42h7.05l.63-3.16h-7l1-4.95ZM25.72,21.38c-.6,2.39-1.5,4.37-4.37,4.37-1,0-2-.52-2-1.55,0-2.51,3.11-2.82,5-2.82ZM28,28.23c.35-2.79,1.81-8.6,1.81-10.59,0-3.48-2.79-4.58-5.75-4.58A15.13,15.13,0,0,0,19,14L18.44,17a11.36,11.36,0,0,1,4.86-1.15c1.35,0,3,.43,3,1.93a4.58,4.58,0,0,1-.12,1.26H24.8c-3.62,0-9.09.37-9.09,5.26,0,2.73,1.9,4.23,4.58,4.23,2.13,0,3.45-.95,4.78-2.62h.06l-.4,2.27ZM39.62,13.07c-3.05,0-6.42,1.24-6.42,4.72,0,3.71,5,3.94,5,6.33,0,1.21-1.35,1.64-2.65,1.64a7.25,7.25,0,0,1-3.68-1.15L31,27.68a10.59,10.59,0,0,0,4.52.89c3.31,0,6.67-1.15,6.67-5,0-3.63-5-4.32-5-6.18,0-1.18,1.44-1.5,2.59-1.5a9.2,9.2,0,0,1,3.17.69l.83-2.91a17.24,17.24,0,0,0-4.2-.6M57.82,1.53C53.42-1.81,45.8.5,39,6.61,44.41,2.39,50.08.94,53.45,3.5c2.11,1.6,3,4.5,2.66,8H61c.47-4.35-.52-8-3.15-10" transform="translate(0)"/><path class="cls-4" d="M82.83,12l.95-3.31a13.93,13.93,0,0,0-5.2-.89c-3.86,0-7.48,1.84-7.48,6.07,0,5.35,6.85,4.78,6.85,8.4,0,2.15-1.9,3.13-3.83,3.13A11.88,11.88,0,0,1,69.19,24l-1,3.42a17,17,0,0,0,5.73,1.13c4.4,0,8.26-1.79,8.26-6.71,0-5.58-6.85-5.38-6.85-8.6,0-1.73,1.93-2.3,3.37-2.3a9.51,9.51,0,0,1,4.17,1m13.75,7.6c0,2.53-1.49,6-4.49,6-2.22,0-3-1.52-3-3.48,0-2.67,1.53-6,4.58-6,2.27,0,2.93,1.61,2.93,3.54m4,0c0-4.09-2.79-6.5-6.79-6.5A8.6,8.6,0,0,0,85,21.81c0,4.17,2.53,6.76,6.73,6.76,5.24,0,8.83-3.8,8.83-9m5.29,8.66,4.58-21.58h-3.86L102,28.23ZM124,26.1l2.74-12.69h-3.86l-1.58,7.45c-.49,2.21-1.46,4.72-4.14,4.72a2,2,0,0,1-2.1-2.07,15.41,15.41,0,0,1,.43-3.1l1.44-7H113l-1.56,7.19a15.62,15.62,0,0,0-.49,3.22,4.48,4.48,0,0,0,4.83,4.75,6.32,6.32,0,0,0,4.2-1.79h.06l-.26,1.44h3.77c.06-.46.2-1.24.37-2.13m15.28-12.69H135.8l.95-4.4-4.14,1.35-.66,3h-2.79l-.6,2.82h2.79l-1.1,5a16.15,16.15,0,0,0-.49,3.45c0,2.85,1.84,3.89,4.46,3.89a10.34,10.34,0,0,0,2.07-.35l.66-3a5.16,5.16,0,0,1-1.87.35,1.37,1.37,0,0,1-1.47-1.44,6.18,6.18,0,0,1,.17-1.44l1.41-6.48h3.46Zm6.59,0H142l-3.17,14.82h3.86Zm.61-2.7.8-3.68h-3.86l-.81,3.68Zm12.48,8.89c0,2.53-1.49,6-4.48,6-2.22,0-3-1.52-3-3.48,0-2.67,1.52-6,4.57-6,2.28,0,2.93,1.61,2.93,3.54m4,0c0-4.09-2.79-6.5-6.79-6.5a8.61,8.61,0,0,0-8.78,8.75c0,4.17,2.53,6.76,6.73,6.76,5.24,0,8.83-3.8,8.83-9M179.61,21a15.65,15.65,0,0,0,.49-3.22,4.48,4.48,0,0,0-4.83-4.75,6.32,6.32,0,0,0-4.2,1.78H171l.26-1.44h-3.77c-.06.46-.2,1.24-.37,2.13l-2.74,12.69h3.86l1.58-7.45c.49-2.21,1.47-4.72,4.15-4.72a2,2,0,0,1,2.1,2.07,15.23,15.23,0,0,1-.43,3.11l-1.44,7h3.85Zm14.47-7.37a17.32,17.32,0,0,0-4.2-.6c-3.06,0-6.42,1.24-6.42,4.72,0,3.71,5,3.94,5,6.33,0,1.21-1.35,1.64-2.65,1.64a7.27,7.27,0,0,1-3.69-1.15l-.83,3.08a10.56,10.56,0,0,0,4.52.9c3.31,0,6.67-1.15,6.67-5,0-3.62-5-4.32-5-6.19,0-1.18,1.44-1.49,2.59-1.49a9.21,9.21,0,0,1,3.17.69Z" transform="translate(0)"/></g></g></g></svg>